<?xml version="1.0" standalone="no"?>
<!DOCTYPE svg PUBLIC "-//W3C//DTD SVG 1.1//EN" "http://www.w3.org/Graphics/SVG/1.1/DTD/svg11.dtd" >
<svg xmlns="http://www.w3.org/2000/svg" xmlns:xlink="http://www.w3.org/1999/xlink" version="1.1">
<metadata>
Created by FontForge 20201107 at Thu Jan 27 03:44:35 2022
 By kurokky
</metadata>
<defs>
<font id="k_eee" horiz-adv-x="1024" vert-adv-y="1024" >
  <font-face 
    font-family="k_eee"
    font-weight="400"
    font-stretch="normal"
    units-per-em="1024"
    panose-1="2 0 5 9 0 0 0 0 0 0"
    ascent="819"
    descent="-205"
    bbox="4.30049 5.28534 988.095 1006"
    underline-thickness="0"
    underline-position="0"
    unicode-range="U+0021-FF1F"
  />
    <missing-glyph />
    <glyph glyph-name="グリフ 1" unicode="&#x30e9;" horiz-adv-x="721" 
d="M530.137 785.791c-8.53125 -2.11133 -16.1191 -4.97754 -21.0801 -9.94531l-151.809 0.802734c-13.5986 0.65625 -23.0889 -5.75 -31.9844 -15.2305l-28.1777 -51.0254c-9.69727 -11.7607 6.44727 -6.97949 12.9453 -8.375l230.006 5.33008l30.4785 3.04492
c12.6855 1.26758 21.3789 14.8369 11.4219 39.6016c0 0 -11.2891 22.3857 -21.3223 28.9375c-8.71484 5.69238 -30.4785 6.85547 -30.4785 6.85547v0.00390625zM582.699 646.412l-32 -10.6621l-174.412 -7.61523l-88.3398 -6.09375l-28.9395 5.33008
c-12.248 -2.16211 -22.2207 -7.0625 -24.3848 -21.3223l-18.2773 -54.0703c-3.70703 -7.25488 -3.97754 -12.7012 11.4219 -9.90039l169.098 9.90039l140.887 2.28516l2.28516 -112.728l-12.1855 -23.6074l-57.1152 -55.5938l-148.52 -92.1641l-48.7402 -22.8457
c-217.351 -59.0762 -139.703 -49.9023 25.1328 -20.5625l108.918 22.0859l164.51 76.1543c20.0254 16.6904 40.5947 30.0957 57.8789 63.2246l25.8926 178.22s-1.73047 48.8994 -17.5156 64.7324c-13.5654 13.6084 -55.5938 15.2324 -55.5938 15.2324v0z" />
    <glyph glyph-name="グリフ 2" unicode="&#x30ea;" horiz-adv-x="535" 
d="M401.371 853.797c-6.15332 -0.107422 -12.0908 -2.91602 -17.6133 -10.916v-13.9941l1.07617 -201.414l2.14453 -180.965l-11.8359 -102.318l-182.043 -143.268c-162.083 -68.7393 -163.548 -75.2178 9.69531 -13.9922l105.57 37.6973s96.2578 49.5195 129.239 90.4805
c19.2783 23.9424 35.5566 85.0879 35.5566 85.0879l4.29883 313.443l-5.37891 76.4727c14.959 1.78516 18.3125 4.7959 13.9941 8.61328l-60.3223 47.3926c-8.20215 3.49316 -16.4707 7.81836 -24.3828 7.67969h0.000976562zM238.398 726.082
c-4.56543 -0.196289 -6.60547 -2.70508 -5.44336 -8.14453c-0.537109 -2.15625 -5.91992 -202.494 -5.91992 -202.494l-3.77539 -34.459c3.0332 -31.5986 25.4619 -32.165 45.7891 -36.0957c22.1016 -5.34082 33.5312 5.54199 37.6973 27.4648l0.541016 43.0898
l-0.541016 171.795c5.28906 -1.4707 5.9834 1.14453 4.83789 5.39453c-33.3613 19.3584 -61.5195 33.9521 -73.1855 33.4492v0z" />
    <glyph glyph-name="グリフ 3" unicode="&#x30be;" horiz-adv-x="879" 
d="M701.76 842.521c-18.918 -0.436523 -46.7637 -21.1445 -46.7637 -21.1445c-42.3486 -96.2256 -41.0469 -98.0625 -41.0469 -98.0625l2.36523 -40.5859l65.1582 50.4121s32.9717 40.1309 37.2559 64.623c2.48828 14.2266 4.82422 35.3086 -7.61133 42.6543
c-2.65723 1.56934 -5.85352 2.18359 -9.35742 2.10352v0zM772.334 762.344c-1.60645 0.03125 -3.20898 -0.0546875 -4.79883 -0.267578c-18.3975 -2.46387 -40.9668 -37.7148 -40.9668 -37.7148l-57.6699 -71.8613l76.6758 34.3789l73.9609 19.1055
s0.211914 23.6582 -6.41211 32.4844c-9.31055 12.4023 -25.2568 23.5801 -40.7891 23.875v0zM547.516 706.611c-0.780273 -0.0478516 -1.40723 -0.279297 -1.86133 -0.710938c-5.21484 -5.71484 -26.7734 10.0215 -2.99805 -33.7422l1.5 -63.752l-181.489 -263.957
l-161.98 -118.488c-106.284 -37.9561 -169.469 -63.0732 3 -17.9961c81.4805 36.373 161.104 52.332 244.476 109.49l140.983 221.967c53.3867 58.748 48.9541 66.3486 52.4883 80.998c1.73438 12.1367 -78.2402 87.166 -94.1172 86.1914h-0.000976562zM298.18 653.412
c-15.6699 -11.5859 -8.43945 -47.8311 1.5 -86.9961l52.4863 -61.4863c23.9424 10.0557 60.1504 7.84375 52.5039 49.4883l-27.0078 61.4863c-27.7324 33.5635 -53.7207 37.457 -79.4824 37.5078z" />
    <glyph glyph-name="グリフ 4" unicode="&#x30d0;" horiz-adv-x="529" 
d="M400.771 809.018c-11.7891 -0.0498047 -23.2988 -2.42188 -23.2988 -2.42188l-32.2383 -46.4258l0.628906 -61.2871l42.5635 46.3008s45.6904 35.2471 36.4785 55.3242c-3.11523 6.79199 -13.7324 8.55469 -24.1348 8.50977h0.000976562zM437.967 753.875
l-27.9922 -37.5312l-19.2324 -45.7715l-11.8164 -55.7207l39.0605 35.7812l44.8008 39.582s12.4834 38.2158 2.83398 53.0742c-5.37598 8.27832 -27.6543 10.5859 -27.6543 10.5859v0zM143.379 705.148l-14.4023 -10.5039l-85.8613 -406.984l36.7031 42.5918
l66.8438 60.2988l18.998 38.0156l38.6738 214.313l7.2207 17.0293zM323.617 682.848l-58.9863 -8.51367l-8.51367 -15.7168l63.5605 -305.428l163.207 -152.703l-74.7207 160.58l-77.3457 309.984z" />
    <glyph glyph-name="グリフ 5" unicode="&#x30d3;" horiz-adv-x="463" 
d="M282.07 760.883l-22.0684 -88.4297l8.24805 -38.373l48.25 62.8672s11.6172 21.6191 7.95117 31.9707c-5.9082 16.6797 -42.3809 31.9648 -42.3809 31.9648v0zM372.287 713.973c-6.59766 -0.0107422 -14.5723 -2.41992 -14.5723 -2.41992l-4.79102 -45.0195
l-21.5605 -50.832l51.5059 27.5938s19.4854 24.916 17.9688 39.2129c-1.33887 12.6143 -11.2256 25.2197 -22.7598 30.499c-1.54688 0.707031 -3.5918 0.969727 -5.79102 0.966797v-0.000976562zM51.0781 711.209l0.287109 -5.3125l4.0918 -70.9883l-16.3828 -91.6914
l-12.5215 -133.15l77.0332 -116.291l135.516 -19.498l133.072 42.0059l14.0781 64.5879l27.1953 47.6113l-5.14648 4.50391l-88.3477 -66.6055l-152.877 -5.41992l-29.8359 20.7207l-26.7207 58.8008l2.65625 79.5234h0.869141l130.416 15.1172l88.0723 -1.375
l44.8926 10.4453l-3.80078 18.873l-48.9395 20.1855l-105.328 4.16797l-103.356 -15.8184l16.8574 109.299z" />
    <glyph glyph-name="グリフ 6" unicode="&#x30d6;" horiz-adv-x="595" 
d="M468.682 775.008c-0.592773 0.0224609 -1.19336 -0.00195312 -1.80273 -0.078125c-12.4297 -1.55371 -21.5469 -30.791 -21.5469 -30.791l-16.9355 -39.2559l-13.8535 -30.7891l0.765625 -26.1699l51.5703 36.9453l28.4805 38.4863s-0.670898 22.8311 -6.1582 32.3301
c-4.60645 7.97559 -11.627 18.9814 -20.5195 19.3223v0zM521.039 723.213c-5.34277 -0.0273438 -9.26953 -0.429688 -9.26953 -0.429688l0.769531 -34.6387l-23.8613 -40.7949l-26.1719 -30.0195l50.0332 6.92773l39.2559 44.6445s6.92871 35.9521 -3.84766 47.7227
c-5.16309 5.63965 -18.0029 6.63379 -26.9082 6.58789v0zM370.707 642.406l-132.807 -3.26562l-83.8184 -5.44336l-69.668 1.08789l-66.4023 -75.1113l51.1621 -6.53125l103.413 8.70898l165.462 -9.79688l-6.53125 -54.4277l-45.7188 -85.9961l-64.2275 -55.5176
l-124.096 -79.4648l-41.3652 -13.0625l82.7305 -10.8867l142.603 58.7832l109.944 111.033l33.7461 96.8828l3.26562 87.084l16.3281 9.79688z" />
    <glyph glyph-name="グリフ 7" unicode="&#x30d9;" horiz-adv-x="780" 
d="M500.967 733.062c-10.7305 0.240234 -26.5625 -5.09375 -26.5625 -5.09375l-13.8555 -58.4971l-23.0918 -64.6582l-4.61914 -16.9336l75.4336 56.959l16.9336 73.8945s-12.1084 12.0186 -20.0117 13.8555c-1.26367 0.292969 -2.69336 0.439453 -4.22656 0.474609
v-0.000976562zM402.893 727.1c-3.02832 -0.0126953 -5.17773 -0.162109 -5.17773 -0.162109l-8.9043 -53.4062l-9.58594 -36.209l-3.50195 -24.5977l69.7246 83.3828s-14.4541 22.791 -25.9395 28.5977c-4.07227 2.05957 -11.5664 2.41602 -16.6152 2.39453v0z
M281.512 659.068l-56.3887 -39.3027l-91.3574 -111.56l-47.7168 -52.5098l-0.304688 -2.49023l-7.78906 -66.0684l60.4219 27.2852l68.0391 33.2402l69.6602 95.9844l18.7031 12.8105l209.955 -170.649l95.2812 -54.0215l90.0273 14.0156z" />
    <glyph glyph-name="グリフ 8" unicode="&#x30dc;" horiz-adv-x="624" 
d="M425.262 765.062l-25.6602 -67.0352l-2.57227 -39.8789l70.9121 63.9707s7.13184 21.1406 1.58398 29.127c-8.81543 12.6934 -44.2412 13.8164 -44.2637 13.8164v0zM248.639 756.059l0.960938 -8.51758l6.83984 -59.8184l9.2793 -61.4453l-52.541 -2.41992
l-92.0898 -12.4277l-46.5117 -66.7969l70.4531 -20.1641l118.504 16.4395c-0.452148 -10.9062 -0.933594 -21.9316 -1.27344 -30.3242c-0.423828 -10.6582 -0.763672 -17.5498 -0.763672 -19.9629v-112.375l-8.19336 -100.657l-21.8232 -15.2402l52.2832 -43.5801
l51.5098 41.5996l-5.25 137.977l9.91992 150.32l68.3535 6.6543l62.9688 -9.02539l45.2422 60.1582l-56.5684 36.2168h-57.5332l-46.209 -12.0371l-15.0312 -0.693359l-0.90625 57.3301l-5.6875 60.5996zM528.65 737.008
c-7.58887 -0.169922 -19.3145 -12.0723 -19.3145 -12.0723l-43.4531 -62.7676l62.7676 7.24219s38.0957 29.1133 33.7988 48.2832c-2.83594 12.6621 -20.8242 19.5703 -33.7988 19.3145v0v1e-05zM85.3848 456.248l-1.33008 -9.02344l-6.79102 -45.8848l-16.0488 -73.3301
l46.3926 -48.6465l22.1465 68.4219l28.2754 48.2383l17.7285 20.3008zM450.854 444.787l-2.17773 -0.253906l-40.4512 -4.2168l21.8945 -85.6406l-9.02344 -19.9629l25.8535 -41.7871l74.9238 -9.85352l8.07422 56.7031l-41.1602 84.1504z" />
    <glyph glyph-name="グリフ 9" unicode="&#x30c0;" horiz-adv-x="566" 
d="M406.197 824.842c-3.09277 0.0371094 -6.1377 -0.107422 -8.92578 -0.292969c-5.79297 -0.386719 -16.0859 -6.67383 -16.0859 -6.67383l0.320312 -39.2812l0.222656 -64.543l38.959 52.4238s17.959 35.3018 8.98438 49.4473
c-4.49121 7.07812 -14.1973 8.80957 -23.4746 8.91992v0zM464.918 766.576c-7.91113 0.0292969 -19.4688 -3.04688 -19.4688 -3.04688l-2.82422 -35.2969l-14.1191 -36.7109l57.8887 24.0039s11.9668 27.8164 5.64844 39.5332
c-4.19629 7.7832 -15.2686 9.9082 -24.002 11.2969c-0.936523 0.148438 -1.99316 0.216797 -3.12305 0.220703v0zM379.068 708.322l-0.015625 -0.0253906c-9.19336 -0.0742188 -18.3916 -3.1748 -26.5605 -10.584l-0.154297 -0.169922l-0.332031 -0.330078l-31.248 -31.3066
l-43.6016 0.287109l-1.68359 2.81836l-0.587891 0.486328c-1.42188 1.18555 -7.7793 6.0918 -14.3516 11.2031c-6.57324 5.11133 -12.9434 10.0527 -12.9434 10.0527l-0.529297 0.433594l-0.664062 0.228516c-4.99414 1.81348 -9.15137 2.34375 -12.8262 1.29492
c-3.67578 -1.0498 -6.25586 -3.79785 -7.70898 -6.57227c-2.90723 -5.55078 -3.27832 -11.7588 -4.73047 -15.1152v-0.101562l-52.5039 -139.146l-23.6436 -40.5391c-7.37793 -7.46289 -12.9082 -13.3896 -16.3057 -17.6738
c-1.75684 -2.21484 -2.99707 -3.96777 -3.85352 -5.75195c-0.427734 -0.893555 -0.852539 -1.76855 -0.935547 -3.10547c-0.0810547 -1.33496 0.612305 -3.6084 2.1875 -4.73242c1.57129 -1.12402 3.01367 -1.06738 4.06836 -0.978516
c1.05371 0.0810547 1.91309 0.324219 2.87695 0.648438c1.92773 0.648438 4.14746 1.64453 6.80078 3.04883c5.30566 2.81055 12.4102 7.24219 21.5137 13.2168l0.228516 0.101562l39.9492 32.0117c1.68945 -2.16211 3.89551 -4.99316 4.18359 -5.37695
c-0.294922 0.397461 0.220703 -0.368164 0.707031 -1.13672c0.485352 -0.764648 1.12012 -1.80762 1.95508 -3.14844c1.66699 -2.67969 4.01465 -6.44238 6.74609 -10.873c5.45898 -8.85938 12.5889 -20.5312 19.8301 -32.3418
c13.7725 -22.4658 26.709 -43.5215 29.7402 -48.4766l-102.189 -141.807l-91.791 -83.8672c-17.6211 -9.65527 -29.6914 -16.5771 -36.4258 -20.8672c-3.40625 -2.1709 -5.21387 -3.13184 -6.96094 -5.27734c-0.220703 -0.280273 -0.40332 -0.552734 -0.646484 -1.03516
c-0.110352 -0.25 -0.273438 -0.551758 -0.376953 -0.919922c-0.110352 -0.368164 -0.167969 -1.32422 -0.167969 -1.35156c0.000976562 0 0.375977 -1.77637 0.390625 -1.79883c0 0 1.05566 -1.50391 1.07812 -1.52344c0 0 0.87793 -0.649414 1.25 -0.820312
c0.375977 -0.169922 0.692383 -0.243164 0.978516 -0.316406c2.25781 -0.507812 2.79688 0.000976562 3.96875 0.273438c4.68652 1.17383 13.2598 4.55566 26.6914 10.2676c13.4316 5.71094 31.3652 13.7129 53.4238 23.6992l0.646484 0.287109l135.451 121.631
l114.742 117.072l42.3945 74.9082l21.1387 125.541c7.15527 5.06641 13.7627 10.79 16.9551 18.9688c3.52832 9.04395 3.17969 20.1309 -2.23047 33.4922l-0.433594 1.02148l-28.043 23.3242l-0.447266 0.212891c-10.2314 5.20703 -20.5957 9.50195 -31.0781 10.3848
c-1.31055 0.110352 -2.6123 0.168945 -3.92578 0.154297v0zM274.449 607.158h52.0156l-9.0332 -114.799l-11.6191 -19.9453l-61.8652 64.3516l-13.3594 2.56055z" />
    <glyph glyph-name="グリフ 10" unicode="&#x30c2;" horiz-adv-x="537" 
d="M401.84 761.152c-5.70117 0.0410156 -18.5547 -9.99805 -18.5547 -9.99805l-6.77148 -32.3203l-6.77344 -65.9883l46.0566 45.7891l18.9648 44.4414s-20.5498 16.4238 -32.3926 18.041c-0.167969 0.0224609 -0.345703 0.0332031 -0.529297 0.0351562v0v0z
M275.516 754.764l-37.4375 -56.6875l-92.9902 -88.3828l-23.2266 -11.9297l2.18164 -7.65039l84.5781 6.56055l20.1836 -35.2129l-8.74219 -21.2168l-122.073 5.32617l-46.9824 -16.9395l-29.084 -46.9824l43.5234 -6.40234l66.1914 4.07617l87.2344 -5.1543
l1.0918 -22.4062l-27.4043 -59.9609l-35.5273 -88.8574l-40.3242 -63.8652l-45.5625 -33.3164l3.78906 -7.10547l70.4844 25.8242l55.5527 38.8574l36.0312 87.3496l41.1699 78.7656l6.24414 43.4102l65.2715 5.0957h70.6406l4.76562 29.5703l-23.168 28.2227
l-34.8828 7.10547l-66.7793 -1.30664l-18.29 29.9434l-6.51562 23.9883l-13.5664 32.7148l38.2568 35.2129l25.4512 64.998l-3.25781 1.73633zM459.949 732.246c-8.38574 -0.0146484 -21.252 -6.96289 -21.252 -6.96289l5.07617 -47.1035l-27.0742 -77.3867l69.3789 45.4199
s16.7354 38.9893 10.1543 57.2012c-5.01953 13.8906 -19.4062 25.4854 -33.8438 28.5996c-0.75293 0.162109 -1.57227 0.234375 -2.43945 0.232422v0z" />
    <glyph glyph-name="グリフ 11" unicode="&#x30c5;" horiz-adv-x="645" 
d="M504.1 834.223c-1.08887 0.0302734 -2.17676 0.0263672 -3.26367 -0.0078125h-0.00195312c-8.68945 -0.285156 -17.1943 -2.68555 -23.9609 -8.11328c-8.21289 -6.58789 -11.1914 -18.9775 -13.0801 -29.75c-1.79785 -10.2588 -2.08984 -19.04 -2.11523 -19.877
l-10.6914 -79.7695l7.60938 -2.94727l41.6934 60.1191l48.7793 49.7988l-1.63867 2.76758s-2.74316 4.65332 -6.66602 9.78125c-3.92188 5.12891 -8.7002 10.9209 -14.8672 13.4121c-6.56152 2.65137 -14.1748 4.38574 -21.7969 4.58594v0zM578.264 775.941
c-6.07812 -0.015625 -12.4932 -1.21094 -18.4258 -2.74609c-11.8652 -3.07129 -21.9238 -7.625 -21.9238 -7.625l-1.00391 -0.451172l-0.65625 -0.884766c-26.1865 -35.6309 -39.0723 -53.8916 -45.459 -63.3086c-3.19336 -4.70898 -4.75488 -7.19043 -5.58789 -8.62891
c-0.416016 -0.719727 -0.65332 -1.16211 -0.855469 -1.63867c-0.100586 -0.239258 -0.197266 -0.473633 -0.294922 -0.921875c-0.0224609 -0.113281 -0.0341797 -0.319336 -0.0527344 -0.472656l-0.0136719 0.0800781l-5.25586 -40.9844l72.8594 33.5508l44.0996 47.6367
l0.289062 0.884766s2.33887 7.27832 3.51953 15.7168c0.59082 4.21875 0.917969 8.75879 0.435547 13.0664c-0.481445 4.30664 -1.74902 8.62793 -5.16016 11.6699c-4.44531 3.96484 -10.4326 5.07324 -16.5117 5.05664h-0.00195312zM375.377 676.324v-5.07227v-70.459
l-20.5156 -164.482l-41.2227 -37.0957l-137.258 -65.3887l-133.019 -42.373l-19.5332 -17.5625l88.1328 -11.0996l205.558 61.166l77.5957 48.1934l23.959 74.8613l11.1133 61.1523l13.791 113.814l12.3418 34.7578zM295.924 646.158l-42.9316 -6.20508l0.273438 -3.66406
l4.18164 -69.4883l24.3301 -30.4805l31.1504 -9.34961l21.2266 36.7812l9.14258 45.7207v27.8965zM184.393 609.008l-58.0645 -5.42578l-0.0683594 -3.60938l-0.724609 -55.0137l18.6973 -32.9141l38.8457 -7.69531l10.7969 15.6504l16.5801 49.6973l10.1289 15.9648z" />
    <glyph glyph-name="グリフ 12" unicode="&#x30c7;" horiz-adv-x="574" 
d="M452.711 817.471c-3.65039 -0.0185547 -7.12793 -0.813477 -10.125 -2.67188c-15.2686 -9.46875 -15.9805 -51.4766 -15.9805 -51.4766l5.09961 -60.1699l34.248 51.7188l25.1113 28.8105s-6.85742 20.124 -15.0586 25.7402
c-6.40039 4.38379 -15.2646 8.0918 -23.2949 8.04883v0zM373.299 786.34l-30.8945 -9.44531l-55.4043 -0.949219l-73.0391 -7.44727l-34.3887 0.572266l-2.5293 -4.9043l-17.3691 -33.1738l-15.3711 -26.2969l49.6348 -4.96094l53.5039 5.54688l98.498 5.43555
l56.0332 -1.63477l16.5312 26.1992l-7.07031 38.5527zM523.992 780.076c-8.49805 -0.271484 -17.5645 -7.62109 -24.3594 -13.2051c-14.0928 -11.5811 -29.9219 -45.8145 -29.9219 -45.8145l-23.5469 -50.5371l27.0762 5.94531l68.2812 72.832
s-1.97656 25.5264 -11.7715 29.7266c-1.86621 0.799805 -3.79688 1.11523 -5.75781 1.05273v0zM233.971 643.965l-75.584 -7.08398l-36.6504 -6.17773l-13.8906 -22.0762l-0.365234 -1.42578l-10.5625 -44.3105l89.3047 -0.572266l57.5137 -2.2207l8.07617 -41.668
l6.66602 -44.0449l-23.7129 -73.9473l-76.6855 -87.4043l-68.1914 -45.791l-20.1641 -22.0645l-40.9844 -8.77344l-0.585938 -0.109375l3.17188 -17.5918l0.574219 0.107422l124.545 18.2227l99.7559 85.3906l36.9736 65.7031l38.6504 99.6582l1.80469 71.084
l37.4482 2.42969l66.1621 1.04883l33.2725 33.2852l-11.46 37.2266l-58.8262 1.11523l-52.7656 5.9668z" />
    <glyph glyph-name="グリフ 13" unicode="&#x30c9;" horiz-adv-x="420" 
d="M148.535 817.836l-1.10156 -0.269531c-25.792 -6.21289 -53.1016 -8.69434 -79.0703 -22.3555l-3.58398 -1.89648l4.16992 -8.95312c-0.000976562 0 0.000976562 0.000976562 0 -0.0800781c-0.0810547 -0.925781 -0.0800781 -2.13477 -0.107422 -3.79297
c0 -3.31543 -0.00195312 -8.31055 0.0800781 -14.7676c0.107422 -12.9131 0.329102 -31.7246 0.529297 -54.8613c0.415039 -46.2734 0.685547 -109.655 -0.685547 -176.559c-3.25586 -158.976 -12.9121 -336.959 -12.9121 -336.959l-0.642578 -12.0195l8.07422 8.91016
c28.2822 31.1123 44.5986 74.3359 54.7637 96.2363c22.3066 48.0586 23.8164 106.317 23.8164 106.317l3.79492 146.785l155.586 -109.162l21.5586 8.54883l17.1797 64.7188l-17.0684 19.4961l-141.893 77.4785l-15.2832 1.00391l-19.3418 -14.3906l4.85352 209.986
c0.584961 1.58887 1.875 3.54492 2.99805 6.10742c0.592773 1.36035 1.35547 3.21094 0.583984 5.5918c-0.772461 2.37988 -3.01562 3.90234 -5.06055 4.5332h-0.0820312zM250.828 786.68c-6.58398 0.0996094 -13.1807 -1.34668 -18.3906 -4.26367
c-20.9199 -11.71 -31.502 -64.6582 -31.502 -64.6582l34.4219 -89.1055l15.4121 46.8184l26.5488 63.5879s5.24219 30.0986 -4.13086 39.4004c-5.44922 5.40723 -13.8936 8.09277 -22.3594 8.2207v0zM73.3398 784.842
c-0.104492 -0.329102 -0.163086 -1.81055 -0.191406 -4.09961c0 -0.0078125 -0.216797 -0.0820312 -0.216797 -0.0820312c0.00390625 0 -2.2627 0.939453 -2.25781 0.933594c0.00488281 -0.00292969 -0.845703 0.916992 -0.837891 0.908203
c0.00585938 0 -0.242188 0.443359 -0.320312 0.572266zM334.986 739.291c-1.77832 0.0263672 -3.50977 -0.164062 -5.12305 -0.591797c-25.6699 -6.79883 -49.1582 -62.6875 -49.1582 -62.6875l-1.77344 -80.5312l62.9648 76.0312s21.7295 39.8125 12.6934 57.084
c-3.35449 6.41016 -11.9004 10.5801 -19.6035 10.6953v0z" />
    <glyph glyph-name="グリフ 14" unicode="&#x30d1;" horiz-adv-x="678" 
d="M371.422 766.793l-0.285156 -4.95898l-8.64648 -137.631l-9.81055 -138.959l32.459 -46.0645l89.7832 -62.0137l48.3945 -46.4023l119.396 2.625l-131.375 90.623l-76.5762 88.6016l-23.416 125.416l10.7129 73.9512l5.90039 37.1953zM508.957 765.045
c-11.6729 -0.0146484 -23.8301 -1.25195 -23.8301 -1.25195l-14.5488 -19.9473l-9.70703 -27.207l2.15039 -28.5508l19.9492 -15.0938l18.0449 -4.85547l40.9727 15.627l18.3105 27.4863l11.8633 16.7168s-10.4561 18.1152 -18.5898 24.2422
c-8.63574 6.50488 -19.5576 9.89355 -30.1875 11.8672l0.00195312 0.00195312c-3.91797 0.727539 -9.12402 0.97168 -14.4297 0.964844v0zM507.23 738.732l15.8896 -0.814453s7.51367 -5.72168 8.08496 -9.95898c1.18945 -8.85059 -4.1709 -18.5234 -10.7861 -24.5215
c-3.42676 -3.1084 -13.1885 -4.32422 -13.1885 -4.32422l-15.0957 9.70898l6.19727 18.3262zM235.473 701.945l-34.8066 -25.998l0.175781 -2.10938l5.35547 -76.0156l8.5293 -51.7441l-17.6758 -58.502l-80.5312 -57.3223l-91.2285 -42.6562l84.3672 -12.6602
l73.5078 45.1055l74.4375 50.9785l14.6211 41.3125l9.65039 136.805l21.0703 22.8555z" />
    <glyph glyph-name="グリフ 15" unicode="&#x30d4;" horiz-adv-x="610" 
d="M408.402 811.881c-2.55371 0.0302734 -5.09668 -0.104492 -7.60742 -0.416016c-21.8916 -2.70898 -55.6387 -35.8242 -55.6387 -35.8242l4.94141 -48.0117l51.4492 -43.0684l41.166 8.01172l12.9551 19.0488l22.8691 43.0684s-9.37793 28.2236 -20.1992 37.3438
c-13.5449 11.417 -32.0586 19.6377 -49.9355 19.8477v0zM415.678 770.436c3.19336 0.0351562 6.36719 -0.34668 8.35547 -1.6582c4.88965 -3.22461 7.24609 -16.0098 7.24609 -16.0098s-5.40918 -14.3525 -11.0527 -19.0469
c-5.80859 -4.83105 -21.3496 -7.61523 -21.3496 -7.61523l-9.51562 20.2012l15.625 22.8574s5.37012 1.21387 10.6914 1.27148v0zM38.5703 763.096l3.28906 -7.74609l29.8926 -70.1582l11.6562 -77.6836l2.62695 -188.475l44.7227 -21.7051l148.83 -92.1719l106.514 47.8926
l175.33 162.287l-3.73438 5.17969l-276.605 -146.722l-112.856 56.4365l-31.1172 32.4014l18.9004 109.804l50.0176 11.2734l184.58 32.1211l-40.25 73.2715l-99.0469 -49.5762l-85.0469 -19.4609l27.6074 70.2617z" />
    <glyph glyph-name="グリフ 16" unicode="&#x30d7;" horiz-adv-x="648" 
d="M483.895 809.006c-10.4658 -0.0771484 -20.2109 -2.09375 -27.1172 -9.07617c-13.4131 -13.5625 -5.70117 -56.9395 -5.70117 -56.9395l24.4082 -28.4707l31.7305 -6.50391l32.5312 0.820312l22.7715 21.9668l23.6035 31.7148s-6.36133 21.7412 -14.6445 28.4707
c-15.0645 12.2383 -36.7871 13.9297 -56.1367 15.4609c-9.79004 0.774414 -20.9785 2.63477 -31.4443 2.55664h-0.000976562zM516.16 779.6h0.00195312c6.79688 -0.214844 18.7051 -8.13867 18.7051 -8.13867v-20.3301l-27.6523 -8.14062l-9.76172 3.25977l-1.62109 26.0293
s13.1289 7.55273 20.3281 7.32031v0v0zM409.484 720.656l-171.703 -18.5176l-106.291 -13.8574l-61.7891 -21.4297l-0.771484 -1.48242l-35.0527 -72.7344l85.3477 2.56641l122.008 36.7695l132.775 6.67578l-20.0605 -160.224l-40.8164 -79.3945l-65.7109 -72.5469
l-123.312 -47.9004l-66.6562 -22.9746l2.25 -7.74805l0.363281 0.132812l258.769 62.3105l79.457 107.552l67.1289 192.174v74.1504z" />
    <glyph glyph-name="グリフ 17" unicode="&#x30da;" horiz-adv-x="660" 
d="M441.691 747.074c-11.334 0.109375 -22.3428 -1.72363 -32.3105 -6.5332c-15.8018 -7.62402 -30.1875 -43.1133 -30.1875 -43.1133l6.47656 -51.7441l56.0391 -25.8652l18.3242 -12.9395l25.8809 22.6328l26.9414 23.7109l22.6328 54.9766
s-23.1592 21.793 -37.7266 26.957c-17.3877 6.16211 -37.1807 11.7354 -56.0703 11.918v0zM458.596 708.654c1.22168 -0.0390625 2.42871 -0.186523 3.60742 -0.455078c5.69824 -1.30078 11.8477 -12.9258 11.8477 -12.9258l-21.5566 -26.957l-24.7871 -3.23047
s0.325195 23.9453 7.53906 32.3418c5.51855 6.42188 14.7969 11.499 23.3496 11.2266v0zM259.908 675.109l-69.3184 -16.1133l-89.2793 -189.316l-29.1719 -83.541l2.125 -1.68164l60.6699 -47.5527l45.0039 142.027l52.5254 97.7656l14.5039 -12.1152l178.223 -201.031
l77.4609 -82.0801l73.2129 3.39258l-51.8027 97.0859l-183.299 213.869z" />
    <glyph glyph-name="グリフ 18" unicode="&#x30dd;" horiz-adv-x="566" 
d="M455.383 793.357c-1.19824 -0.00585938 -2.38574 -0.0322266 -3.55273 -0.0761719c-15.3867 -0.586914 -42.3203 -18.5078 -42.3203 -18.5078l-26.459 -52.9336l68.7812 -34.3926l37.7246 6.61133l16.5332 18.5254s10.8594 45.4082 -1.32227 62.1895
c-10.2939 14.1816 -31.3955 18.6631 -49.3848 18.584v0v0zM225.291 788.754l4.46289 -8.47266l16.8125 -32.0234l-6.62109 -97.7168l-53.6855 -4.07812l-90.457 -5.35547l-13.123 -29.1602l-32.0215 -54.3086l57.4922 -5.91211l126.187 7.58008l-4.14258 -185.969
l-37.3633 -19.1035l36.7217 -66.0332l53.3652 -25.7207l13.2402 75.5156l11.959 239.639l109.898 -5.03711l65.5781 3.75586l-4.00977 50.1816l-61.1816 35.5938l-87.1055 4.38086l-15.9863 1.39844l0.892578 98.627zM446.189 756.947
c0.334961 0.0175781 0.672852 0.0175781 1.01172 0c5.87109 -0.308594 12.208 -5.87012 15.876 -10.625c2.61426 -3.38867 3.19043 -8.32227 2.64648 -12.5684c-0.689453 -5.37988 -7.26172 -14.5586 -7.26172 -14.5586l-11.915 1.99023l-9.92383 11.2461
s-0.90625 20.4697 6.625 23.8125v0.00390625c0.949219 0.421875 1.93555 0.644531 2.94043 0.699219v0h0.000976562zM129.609 495.566l-3.45312 -1.90625l-24.5098 -13.627l-30.2363 -52.457l-29.0234 -55.2695l25.2676 -43.6777l47.9414 5.86133l47.1152 112.375z
M406.039 484.246l-1.58398 -4.07812l-19.0352 -48.9668l57.6094 -99.0684l75.957 -18.0742l10.6289 67.5488l-73.3945 82.3223z" />
    <glyph glyph-name="グリフ 19" unicode="&#x30c4;" horiz-adv-x="558" 
d="M243.932 678.846c-4.55078 0.100586 -8.87891 -0.979492 -12.7617 -3.65039c-18.375 -12.6396 -4.81445 -45.3906 1.08203 -66.9004c8.01855 -29.2539 20.4727 -61.3535 45.127 -79.0234c9.22168 -6.60938 24.376 -13.3486 33.4102 -6.48633
c17.3535 13.1816 5.21094 65.168 5.21094 65.168s-8.91406 47.1035 -24.8555 63.1562c-11.8594 11.9424 -30.96 27.377 -47.2129 27.7363v0zM437.631 669.092c-8.44824 0.0449219 -16.4697 -1.51074 -24.0156 -4.84961
c-27.1729 -14.7627 -2.84082 -62.1445 3.57422 -98.1797l-15.3418 -100.016l-187.324 -169.103l-172.469 -72.2305s126.898 27.6455 132.713 27.127c5.81348 -0.515625 204.078 87.332 204.078 87.332l105.254 142.414l10.9746 143.181
c7.08398 3.09668 13.8262 6.53711 14.873 15.6719c-26.3506 17.9707 -50.7266 28.5371 -72.3164 28.6523v0zM146.498 584.508c-2.98145 0.0136719 -5.69629 -0.539062 -7.94336 -1.86914c-19.2119 -11.3701 -13.4531 -65.6074 -13.4531 -65.6074
s31.748 -39.1953 53.5254 -50.4688c15.6465 -8.09961 51.8086 -10.4688 51.8086 -10.4688s4.78223 39.9473 -1.85547 58.1797c-7.76953 21.3408 -42.1172 53.5566 -42.1172 53.5566s-23.8662 16.6025 -39.9648 16.6777v0z" />
    <glyph glyph-name="グリフ 20" unicode="&#x30c1;" horiz-adv-x="546" 
d="M284.096 828.318l-9.28906 -7.43555l-2.2832 -1.24023l-1.83984 -17.6934l-20.4629 -37.627l-0.175781 -0.572266c-5.78906 -18.8467 -25.4951 -43.2725 -47.0117 -67.5312c-21.5166 -24.2598 -44.6592 -48.5088 -57.3184 -70.2969l8.7207 -7.78125l70.7812 52.6992
l23.1035 -45.6016l4.13477 -31.2461l-0.125 -14.791l-46.6152 -4.12109l-98.9746 -7.24414c-0.0859375 1.42969 -0.200195 3.05371 -2.14062 5.58789c-1.24219 1.62207 -4.62793 3.2041 -7.10352 2.72656c-2.47559 -0.478516 -3.7627 -1.64551 -5.01953 -2.83789
c-2.44824 -2.3252 -4.84766 -5.70215 -8.27734 -11.1934l-5.25781 -6.79297l-0.0136719 -0.0195312c-13.2041 -17.3066 -22.5566 -35.0742 -28.5488 -53.0449l-2.90234 -8.70508l123.81 11.9531l0.015625 0.00195312s41.7861 4.24414 80.5 8.16992l-0.873047 -107.774
l-16.9512 -62.9746l-113.396 -109.121c-31.2646 -19.2119 -49.3623 -30.8242 -58.332 -37.2422c-2.25977 -1.61621 -3.94336 -2.89746 -5.25 -4.02539c-0.65332 -0.563477 -1.20801 -1.07422 -1.77344 -1.71484c-0.564453 -0.639648 -1.375 -1.09375 -1.84375 -3.54688
c-0.234375 -1.22656 -0.03125 -3.4209 1.1875 -4.98828s2.73047 -2.0791 3.65625 -2.2793c1.85254 -0.400391 2.54492 -0.110352 3.30273 0.0390625c1.5166 0.298828 2.8291 0.768555 4.51367 1.40625c13.4775 5.10449 46.9863 22.1084 70.373 33.1543l0.287109 0.134766
l140.625 85.6973l0.708984 0.992188c18.0215 25.2373 35.7725 43.9268 40.3262 102.388v0.0078125l17.7734 118.309c12.1211 1.21387 25.7871 2.58887 37.1582 3.72852c6.3916 0.640625 12 1.2002 16.0703 1.60156c2.03516 0.201172 3.6875 0.362305 4.85352 0.472656
c0.583008 0.0556641 1.0459 0.0986328 1.36328 0.126953c0.150391 0.0126953 0.333984 0.0214844 0.435547 0.0273438c0.176758 0.00292969 7.23828 0.0400391 16.4746 0.0410156c9.32031 0.000976562 21.4023 -0.00976562 33.3691 -0.0214844
c23.9336 -0.0263672 47.4023 -0.0703125 47.4023 -0.0703125l7.26172 -0.015625l-8.07812 41.2285l-0.0253906 0.117188c-3.86133 16.2051 -12.9766 28.6846 -27.8516 31.7109l-0.947266 0.191406l-104.912 -12.6953l-15.0469 -1.33203l2.26562 30.2617l-0.232422 0.933594
c-8.21875 32.8398 -23.9375 56.7998 -40.5762 78.5625l3.44141 20.1484l-26.6699 3.34766c14.3232 9.49805 29.4141 20.4395 41.7539 43.5527l23.1523 11.4961l0.892578 1.39844c1.13477 1.78125 1.49316 4.08203 1.23047 5.89844
c-0.262695 1.81543 -0.950195 3.24219 -1.73438 4.50586c-1.56836 2.52734 -3.66895 4.57422 -6.20508 6.70898c-5.07227 4.26953 -11.9932 8.63672 -19.5156 12.7539s-15.5967 7.9209 -22.8066 10.7383c-5.51172 2.15332 -10.2021 3.82227 -14.5625 4.45312z
M274.68 820.125l3.36719 -5.0332l-0.199219 -1.91797l-5.67969 2.73047zM395.857 528.1h0.00976562h0.0878906c-0.0185547 0 0.0458984 0.00292969 -0.109375 -0.00195312zM64.5039 183.246c-0.186523 -0.27832 -0.326172 -0.299805 -0.335938 -0.310547
c-0.00976562 -0.0117188 0.211914 0.192383 0.335938 0.310547z" />
    <glyph glyph-name="グリフ 21" unicode="&#x30c6;" horiz-adv-x="578" 
d="M465.4 773.293l-0.767578 -0.00976562l-58.5625 -0.785156l-52.6719 -7.43945l-54.084 7.20312l-0.158203 0.015625c-8.10742 0.75293 -15.8145 -0.703125 -21.8887 -5.06641c-5.75781 -4.13574 -9.46582 -10.5205 -11.5234 -17.9434l-27.9238 -56.2891l94.4648 5.54492
l97.8516 7.50195l63.0859 -1.15234l1.62695 5.97461c4.58594 16.8428 5.08398 30.7412 0.0761719 41.9102c-5.00879 11.1689 -15.7949 18.0518 -28.7695 20.3984zM493.395 643.76l-0.919922 -0.0117188l-39.498 -0.523438l-61.0176 -13.2969l-145.495 -8.53906
l-10.6064 8.36523l-12.3242 -8.73828l-0.585938 -0.646484c-17.1084 -18.9014 -33.2998 -38.7383 -43.6396 -61.7852l-5.61523 -12.5137l102.098 10.0508l53.9648 5.92578l9.07422 -68.2617l-20.9395 -94.3027c-31.7051 -47.6533 -78.2529 -93.2432 -134.461 -137.324
l-53.9062 -21.2656l-0.0390625 -0.0146484c-28.1729 -10.7246 -76.4531 -27.0791 -93.9727 -35.0186c-2.19238 -0.993164 -3.84961 -1.77246 -5.54492 -2.90039c-0.847656 -0.563477 -1.77246 -0.80957 -3.25195 -3.24023
c-0.740234 -1.21484 -1.74805 -3.7334 -0.902344 -6.63477c0.845703 -2.90039 3.10547 -4.52637 4.41992 -5.15234c2.62891 -1.25 3.56152 -0.930664 4.64648 -0.929688c1.08398 0.00292969 2.10449 0.0888672 3.2832 0.224609
c2.35742 0.272461 5.30469 0.767578 9.16211 1.51953c15.417 3.00879 45.2207 10.1807 96.5723 23.4902c50.1357 12.2988 98.7871 33.7705 146.416 61.2402l0.460938 0.265625l0.421875 0.324219c44.1611 34.0391 87.1035 75.3311 115.115 152.218
c25.9492 44.7266 19.6895 96.2305 24.8926 141.944l42.6582 -1.31836l47.8203 -2.06641l2.45898 3.91211c7.68945 12.2383 12.1416 22.3916 13.7578 31.5039s0.0146484 17.4795 -4.31445 23.7734c-8.6582 12.5879 -24.2832 16.2188 -39.2891 19.5273zM35.0977 202.994
v-0.00195312c0.0224609 -0.00195312 0.123047 -0.0498047 0.148438 -0.0527344c-0.0869141 -0.00390625 -0.362305 -0.0292969 -0.390625 -0.0292969c-0.0537109 0 -0.0488281 0.106445 0.242187 0.0839844zM39.1133 189.885
c-0.258789 -0.216797 -0.363281 -0.185547 -0.339844 -0.169922c0.00878906 0.0078125 0.304688 0.149414 0.339844 0.169922z" />
    <glyph glyph-name="グリフ 22" unicode="&#x30ca;" 
d="M537.562 823.398l-13.5332 -16.9356c-2.08029 -2.60336 -5.9906 -8.3854 -3.84375 -15.4824c1.93632 -6.40133 8.15277 -11.7553 19.7148 -16.5977l0.29102 -60.7402l-3.53516 -51.0098l-10.4727 -0.0996l-47.4531 4.51758
c-0.32995 0.78645 -0.75895 1.5485 -1.36719 2.2461c-2.20925 2.53378 -5.33002 3.1778 -7.98242 3.17382h-0.76758l-0.73828 -0.20703c-11.5361 -3.21959 -25.026 -14.3284 -35.6641 -28.1074c-5.31904 -6.88951 -9.76408 -14.467 -12.1855 -22.3359
c-2.4215 -7.86894 -2.78447 -16.2797 0.76953 -23.8574l0.13281 -0.28516l0.16602 -0.26757c2.22372 -3.62412 6.05965 -5.24001 9.56641 -5.88086c3.50676 -0.64082 7.15387 -0.53609 10.9707 -0.2168c7.58562 0.63492 15.884 2.24611 22.4746 2.78711h72.2129
l0.76562 -92.168l-5.4707 -37.6895l-15.7363 -52.6484l-118.037 -151.859l-41.2207 -25.4531c-18.0767 -9.15636 -33.3392 -17.2656 -44.3535 -23.8457c-5.53338 -3.30573 -9.98797 -6.20974 -13.332 -8.81055c-1.67203 -1.30042 -3.06966 -2.51154 -4.2539 -3.82031
c-1.18424 -1.30882 -2.36159 -2.62435 -2.81055 -5.18555c-0.44896 -2.56123 1.50187 -6.24955 3.5625 -7.41992s3.78274 -1.30522 5.70313 -1.39453c3.84077 -0.1784 8.65526 0.40098 15.3633 1.62109c13.416 2.44025 34.035 7.62912 63.7344 16.1719l0.33203 0.0957
l0.31641 0.13476c43.5182 18.5128 79.4467 45.7552 107.818 81.207l0.0801 0.0996l83.9941 115.332l25.7988 103.812l11.9004 73.3047l0.56445 19.1992l62.5156 1.1836l45.0684 4.60156c2.13143 -0.55355 4.48644 -1.00468 7.39063 0.21289
c3.45441 1.44835 5.33912 5.22872 5.85351 8.64844c1.02887 6.83939 -0.36438 16.4158 -3.71875 34.5137l-0.0234 0.13086l-0.0293 0.1289c-2.38828 10.1809 -5.66949 17.3233 -11.2988 21.8828s-12.6577 5.65947 -20.5176 5.76172l-0.69531 0.01l-34.2344 -8.0918
l-48.3086 -0.44335l0.5586 19.1191l-2.39258 48.7539c5.28994 6.84365 9.29676 11.4404 11.875 15.7734c1.4013 2.35498 2.49587 4.92705 2.60351 7.83398c0.10696 2.88875 -0.87068 5.67599 -2.30078 8.08594c-19.0687 34.2314 -46.0762 47.1991 -75.2793 47.3027
c-4.24298 0.0151 -8.54557 -0.29896 -12.8731 -0.75196z" />
    <glyph glyph-name="グリフ 23" unicode="&#x30c8;" horiz-adv-x="310" 
d="M68.9512 839.826c-0.351562 0.00683594 -0.697266 0.00390625 -1.03711 -0.0078125c-2.55371 -0.0878906 -4.88477 -0.72168 -6.74023 -2.10742c-1.85547 -1.38672 -3.03809 -3.46777 -3.54297 -5.65234c-1.00977 -4.37109 0.0410156 -9.31445 2.0332 -15.1348
c3.92969 -11.4863 12.1621 -26.4248 21.668 -42.5469l14.3008 -112.578l-14.9785 -229.713l-3.47266 -190.402c-2.05078 -26.4541 -3.8877 -51.6133 -4.87109 -71.6211c-0.492188 -10.0137 -0.770508 -18.7354 -0.751953 -25.7207s0.263672 -12.0967 1.11328 -15.5859
c0.211914 -0.87207 0.456055 -1.65723 0.880859 -2.45508c0.423828 -0.797852 1.07617 -1.77441 2.45312 -2.3125s3.04492 -0.104492 3.94336 0.498047s1.42676 1.28125 1.94336 2.03711c2.06543 3.02344 3.8916 8.00293 6.43164 16.3477
c5.06738 16.6514 12.2051 46.1182 22.1152 92.3711l36.2891 94.2812l0.5 155.596l0.351562 15.6309l96.2344 -25.7129l0.806641 0.189453c8.49414 1.98242 17.418 3.80371 24.6719 7.19727s13.1865 9.07031 13.4629 17.6016l0.0449219 1.39844l-47.584 49.4277
l-85.4258 48.5332l3.74414 167.488c0.385742 1.77051 1.25977 2.95508 2.69727 4.40039c1.47754 1.48633 3.53516 3.07422 5.25781 5.54297s2.85938 5.92383 2.41016 10.1309c-0.450195 4.20703 -2.25293 9.19629 -5.92188 15.8242l-0.310547 0.564453l-0.501953 0.404297
c-24.7793 20.0713 -56.2031 25.3994 -84.2539 35.623l-0.310547 0.113281l-0.326172 0.0488281c-1.16602 0.176758 -2.27051 0.280273 -3.32422 0.300781v0z" />
    <glyph glyph-name="グリフ 24" unicode="&#x30cb;" horiz-adv-x="569" 
d="M198.309 628.057c-0.452148 0.00976562 -0.904297 0.00878906 -1.35352 -0.00195312c-5.98828 -0.128906 -11.6182 -1.87402 -15.0195 -3.68555c-10.8818 -5.7998 -16.5029 -12.8164 -20.9316 -15.5801l-6.25977 -3.86914v-2.75781
c-18.1826 -12.7715 -33.125 -25.7412 -39.5293 -41.8496l-4.91016 -12.2891l15.6514 -4.01562c26.7832 -6.83398 56.6699 -5.87012 87.9229 -1.85156l125.375 5.13867l65.0645 -3.62891l3.56055 1.11328c7.95801 2.51074 19.7168 5.45801 26.7012 15.7715
c6.67773 9.86035 2.7627 22.0781 -6.19922 34.7852c-3.53809 7.36133 -10.249 12.8711 -17.6777 16.4004c-7.97363 3.78906 -16.8857 6.32324 -26.4561 8.51562l-9.39062 2.12891l-6.99805 -5.51562l-152.226 1.06445c-2.43555 2.80176 -3.37598 6.39941 -7.91797 8.27344
v0.00390625c-3.01465 1.24414 -6.24023 1.78613 -9.40625 1.84961v0zM432.648 428.4c-3.69434 0.0449219 -7.33789 -0.287109 -11.2656 -1.23633c-2.52441 -0.609375 -4.97656 -2.41211 -7.48828 -3.91992l-103.06 0.822266l-162.168 -8.66016l-48.5527 5.22656
l-1.7207 -0.0996094c-0.939453 -0.0498047 -4.98535 0.537109 -11.8457 -0.386719c-6.61914 -0.892578 -14.9863 -5.09766 -20.0098 -10.8848c-25.3369 -17.9648 -37.1045 -36.0996 -50.5176 -51.1387l-2.20898 -2.51562l-0.552734 -3
c-0.283203 -1.46191 -0.804688 -4.00977 0.675781 -7.5957c1.48047 -3.58691 5.75488 -7.25293 9.63672 -8.80664c7.76367 -3.1084 12.6895 -2.3418 19.6426 -1.79102c13.4639 1.06445 36.2607 5.12207 76.3574 13.5957
c3.37988 -0.015625 103.874 -0.435547 109.564 -0.435547c3.16406 0 11.1133 0.148438 24.9199 0.386719c13.8057 0.24707 31.749 0.592773 49.5977 0.917969c35.0781 0.638672 68.4189 1.28613 69.6055 1.30664h0.367188l62.9766 -2.56445l35.9707 -3.58008
l1.22852 0.0488281c11.9922 0.259766 22.3115 0.975586 31.3652 2.80664c9.05273 1.83008 19.1445 4.60645 24.123 13.835c2.48828 4.61523 2.18652 10.0576 0.429688 14.1758c-1.75684 4.11914 -4.55273 7.38184 -7.91797 10.498
c-6.73145 6.23438 -16.1572 12.1064 -29.3398 19.0625l-0.189453 0.0996094l-44.8066 22.3027l-3.25 0.490234c-4.12988 0.569336 -7.875 0.993164 -11.5684 1.03906z" />
    <glyph glyph-name="グリフ 25" unicode="&#x30cc;" horiz-adv-x="750" 
d="M206.227 732.781l-0.214844 -3.40234c-0.130859 -0.0537109 -0.253906 -0.112305 -0.384766 -0.166016l-0.648438 3.32422c-18.5645 -7.53906 -29.8018 -18.1875 -36.6133 -30.3535c-6.78223 -12.1162 -9.24316 -25.5449 -11.0938 -38.877
c-0.892578 -3.31641 -1.29297 -5.60645 -0.761719 -7.88867c0.273438 -1.17285 0.975586 -2.45996 2.11914 -3.24023c1.14453 -0.78125 2.42871 -0.921875 3.41797 -0.855469c1.98047 0.132812 3.41602 0.860352 4.86328 1.53516
c1.31543 0.612305 2.50391 1.19238 3.44727 1.57227l132.22 9.36719l4.53125 1.24023l-21.377 -86.3535l-35.1973 -61.4609l-2.48047 2l-33.6172 37.1465l-0.517578 0.273438c-22.9492 12.0586 -43.3545 11.874 -53.7246 2.7168
c-5.18555 -4.5791 -7.29492 -11.7383 -5.13867 -19.209s8.10352 -15.3525 18.3887 -23.3262l41.1328 -32.377l9.20508 -9.21289l-124.224 -133.324c-29.3877 -16.6865 -48.6172 -28.1738 -59.5645 -35.4414c-5.51562 -3.66211 -8.91406 -6.15918 -10.9258 -8.25195
c-0.50293 -0.523438 -0.935547 -1.02148 -1.32031 -1.68359s-0.878906 -1.62402 -0.560547 -3.08594c0.319336 -1.46191 1.71191 -2.53223 2.60547 -2.83398c0.894531 -0.301758 1.54395 -0.298828 2.20703 -0.273438c2.6543 0.103516 5.82812 1.04395 10.4297 2.55469
s10.3867 3.64453 17.1191 6.25977c13.4668 5.23145 30.7168 12.4082 49.5547 20.3965l0.265625 0.109375l89.4609 57.5723l53.7246 69.2266l126.512 -126.502l147.839 -86.7676l62.1465 -2.65039c39.0488 -3.94629 90.4844 -10.0107 107.487 -10.1934
c2.12598 -0.0224609 3.62012 -0.015625 5.06445 0.294922c0.361328 0.078125 0.733398 0.173828 1.21094 0.398438c0.478516 0.224609 1.19922 0.576172 1.76367 1.6543c0.56543 1.07812 0.351562 2.69434 -0.0878906 3.44727s-0.862305 1.05078 -1.21875 1.30664
c-1.4248 1.02148 -2.72656 1.37598 -4.99023 2.08008c-2.2627 0.704102 -5.29883 1.52344 -9.26367 2.49609c-15.7734 3.87012 -46.4756 10.1943 -97.6113 19.9004l-97.6406 54.0508l-159.729 143.932l-48.4688 39.0723l11.1836 14.418l71.3828 97.8115l36.7676 75.2715
l18.4336 16.6836l0.273438 0.554688c4.01953 8.00879 7.22168 16.2002 3.80859 23.4805c-1.70703 3.63965 -5.08594 6.54883 -9.89844 8.51172c-4.8125 1.96191 -11.1396 3.13379 -19.5469 3.55859l-0.310547 0.0214844l-51.9688 -7.04883l-100.666 -2.60547
c-9.3877 8.92676 -23.8613 11.3105 -38.3945 13.125l-0.0957031 -1.56641z" />
    <glyph glyph-name="グリフ 26" unicode="&#x30cd;" horiz-adv-x="618" 
d="M326.305 767.668l9.3457 -17.752l12.6211 -11.6699l1.60156 -51.0664l-59.0625 -9.19141l-23.3535 10.2773c-6.44531 -0.200195 -13.4814 0.564453 -16.3477 -5.61328l-36.4375 -57.4512l28.9648 0.933594l187.312 12.1504l0.927734 -6.08203l-70.0703 -87.8086
l-73.7988 -57.9199l-92.0176 -50.9141l-67.2676 -27.5645c-104.402 -36.3916 -25.6025 -18.5557 17.7402 -11.2148l124.262 39.7148l72.0098 46.7305l-6.14844 -131.746l-0.927734 -59.791c-9.86914 -9.44336 -10.7412 -25.9521 -12.1543 -42.0391
c3.47168 -29.9814 36.0898 -58.5732 64.4727 -42.041c7.26953 5.13281 3.17773 27.3027 0.925781 46.7051l7.47266 141.062l3.75586 116.473c28.5732 9.71387 56.9268 19.7988 80.3223 38.1445c32.0635 40.2949 45.8145 68.1162 48.0391 90.1758l-1.32617 16.3223
c2.68066 44.8857 -24.9531 45.6855 -48.5723 52.3184l-21.9512 -14.0098l-51.4941 -0.402344c2.48047 12.0752 5.24414 25.1543 5.24414 25.1543l14.4746 22.8848l-63.0527 24.7559zM483.262 493.949l-18.2168 -1.87109
c-18.7012 -0.367188 -31.0967 -4.44629 -7.93945 -29.4336c17.3643 -20.5938 36.5664 -39.5957 62.582 -52.7734c23.957 -7.3916 44.5479 -2.99219 63.5352 7.00391c6.7207 21.71 3.98828 37.9111 -4.21094 50.916l-53.2539 18.6875z" />
    <glyph glyph-name="グリフ 27" unicode="&#x30ce;" horiz-adv-x="462" 
d="M295.178 713.855l6.88672 -13.3486l8.95703 -17.3594l-2.03906 -185.063l-28.5137 -68.7773l-160.065 -147.883c-45.1455 -35.0742 -69.1201 -54.5361 -79.8242 -64.4023c-2.68457 -2.47461 -4.50488 -4.25293 -6.01562 -6.14844
c-0.755859 -0.948242 -1.55371 -1.63477 -2.32422 -4.18945c-0.385742 -1.27734 -0.885742 -3.52539 0.363281 -6.3418c1.24805 -2.81738 4.29395 -4.62891 6.11328 -5.06445c3.6377 -0.871094 4.58105 -0.0380859 5.70703 0.304688
c1.12598 0.341797 2.06738 0.732422 3.09375 1.19336c2.05176 0.919922 4.36328 2.12891 7.06836 3.62305c10.8193 5.97461 27.7188 16.5254 43.916 26.5371s32.0586 19.6211 38.2539 22.584l0.513672 0.246094l188.924 123.27l4.30273 5.5
c3.21777 -3.62207 6.9082 -6.19629 10.707 -7.54883c7.21582 -2.56934 13.5117 -2.0498 17.8516 -2.55859l6.01562 -0.705078l2.69922 5.42383c9.40234 18.8945 12.3506 48.4688 13.6699 81.6719c1.30957 32.9746 0.43457 69.0547 -0.326172 98.8164l12.9668 103.748
l6.11523 46.6172l-8.76367 0.947266s-17.2578 1.86523 -36 3.80859c-18.7422 1.94434 -38.4268 3.94629 -45.2539 4.30664zM39.8984 212.338c0.0205078 0.00390625 0.113281 -0.0195312 0.136719 -0.015625c-0.256836 -0.102539 -0.639648 -0.258789 -0.623047 -0.253906
c0.0126953 0.00390625 0.0546875 0.18457 0.486328 0.269531v0z" />
    <glyph glyph-name="グリフ 28" unicode="&#x30cf;" horiz-adv-x="664" 
d="M361.424 673.176c-4.97656 -0.09375 -9.53809 -0.800781 -13.4609 -2.46094c-3.15234 -1.33398 -5.88379 -3.41406 -7.78125 -6.18359h-1.68164l3.2168 -171.016l15.0508 -46.9297l91.0684 -97.4551l54.207 -39.7129l71.9863 -17.5137l0.128906 -0.0234375
c13.4795 -2.26367 24.9883 -3.87695 34.0195 -4.64062c9.03125 -0.764648 15.2773 -0.967773 19.8184 0.710938c1.13574 0.419922 2.25391 0.996094 3.20117 2.07422s1.5127 2.78027 1.36914 4.24023c-0.286133 2.91992 -2.00977 4.64453 -4.21094 6.61328
c-4.35352 3.89355 -12.0137 8.50879 -23.8809 14.5859l-157.809 116.66l-21.2617 41.0684l-12.4785 170.026l-1.11719 17.1934l-1.97852 0.908203c-15.5068 7.12793 -33.8584 12.126 -48.4062 11.8516v0.00195312v0.000976562zM248.713 627.463v-0.00195312
c-12.7803 0.173828 -27.626 -3.62109 -45.1816 -7.95703l-0.601562 -0.148438l-0.517578 -0.337891c-3.55664 -2.31641 -4.58203 -6.43848 -4.56641 -9.74219c0.015625 -3.2959 0.682617 -6.41602 0.859375 -8.9043l3.94922 -117.83l-7.10352 -27.1035l-39.4648 -53.6719
l-72.9062 -75.3203c-21.1504 -17.1514 -34.3066 -28.6445 -41.252 -35.8691c-3.48535 -3.62598 -5.54395 -5.59375 -6.3457 -8.86523c-0.200195 -0.817383 -0.307617 -1.90723 0.177734 -3.0918s1.61523 -2.11719 2.55859 -2.49023
c1.88672 -0.745117 3.14844 -0.414062 4.58594 -0.111328c5.75 1.21191 14.8066 5.61816 27.4473 12.2598c12.6416 6.6416 28.418 15.502 45.7422 25.4551l0.150391 0.0878906l84.6016 60.0078l59.2988 44.3633l14.0977 46.248l-1.00586 119.904v0.0195312
c-0.119141 6.47656 0.62793 14.335 0.490234 21.3496c-0.0683594 3.50684 -0.341797 6.81641 -1.2168 9.81836c-0.874023 3.00195 -2.48633 5.89844 -5.375 7.56641l-0.847656 0.490234h-0.216797c-5.22363 2.63672 -11.0547 3.78906 -17.3574 3.875v0z" />
    <glyph glyph-name="グリフ 29" unicode="&#x30d2;" horiz-adv-x="494" 
d="M50.8066 681.707c-0.963867 -0.0234375 -1.96387 -0.0732422 -3.1543 -0.642578c-1.18945 -0.569336 -2.28809 -1.91699 -2.66602 -3.07422c-0.754883 -2.31543 -0.34375 -3.86035 -0.140625 -6.40039l0.265625 -3.29102h0.207031l4.16992 -52.0352l9.2832 -120.795
l-11.875 -149.91l33.8535 -53.2031l1.05078 -0.431641c50.5713 -20.7246 95.625 -51.1738 161.314 -53.2109l0.212891 -0.0078125l0.212891 0.0195312c35.1855 3.09766 65.916 16.5967 96.248 29.875l0.580078 0.253906l93.9258 89.8594l0.0703125 0.0761719
c8.83105 9.49707 14.5166 16.3564 17.748 21.3672c1.61523 2.50488 2.67188 4.48926 3.09961 6.63086c0.213867 1.07129 0.273438 2.27344 -0.203125 3.54297c-0.477539 1.26953 -1.61328 2.38965 -2.74219 2.90039c-2.25879 1.02148 -4.15625 0.633789 -6.28906 0.140625
c-2.13379 -0.494141 -4.52734 -1.3457 -7.27148 -2.49609c-5.45605 -2.28613 -12.2656 -5.77246 -20.0176 -10.0371l-145.289 -67.5195l-58.3457 -2.63867l-89.0566 29.623l-6.62695 35.6699v65.6855l182.502 45.918l26 5.79883l2.68555 40.2949l-8.54102 53.9336
l-86.5137 -38.2305l-116.012 -43.0195v19.623l10.6543 144.475v0.130859c0 1.77734 0.34375 4.1543 -1.09375 6.82031c-0.719727 1.33301 -2.07324 2.58594 -3.66797 3.20312c-1.51074 0.584961 -3.14551 0.707031 -4.97461 0.570312l-65.3828 0.371094h-0.0253906
c-1.64453 0.0917969 -2.96191 0.19043 -4.19531 0.160156v0z" />
    <glyph glyph-name="グリフ 30" unicode="&#x30d5;" horiz-adv-x="410" 
d="M374.229 652.273c-0.62793 0.0244141 -1.20605 -0.0234375 -1.76367 -0.0957031l-36.1504 -2.58203l-50.8604 -7.19336l-145.177 -4.10156l-49.418 4.63086l-0.251953 -0.00878906c-12.7109 -0.462891 -22.4941 -7.53613 -28.4727 -19.2949h-0.0253906l-20.0801 -39.8867
l-2.20508 -10.2148l-0.0214844 -0.214844c-0.231445 -2.27637 -0.0361328 -4.7666 1.21289 -7.04492c1.25 -2.27734 3.49707 -4.03809 6.25195 -5.0625c5.4707 -2.0332 13.2021 -2.01562 25.5586 -0.128906l189.261 12.6016l7.88379 -123.752l-64.6309 -78.7734
l-85.9385 -68.0342l-39.1279 -23.8828c-23.0244 -8.71582 -38.8691 -15.252 -48.4961 -19.957c-4.8418 -2.36719 -8.06543 -4.16895 -10.2656 -6.02539c-1.09961 -0.928711 -2.25879 -1.75195 -2.65234 -4.0293c-0.196289 -1.13965 0.15918 -2.68555 0.898438 -3.64453
c0.740234 -0.959961 1.58105 -1.39746 2.29492 -1.68555c2.8584 -1.1543 5.43457 -0.875977 9.51562 -0.564453c4.08203 0.310547 9.31641 1.00293 15.6914 2.04102c12.751 2.07617 30.0293 5.53711 51.0068 10.1152l0.34375 0.0742188l116.518 48.6777l117.207 84.3896
l31.873 104.494l11.3691 93.0352l4.10938 48.7715c1.30078 5.05273 1.81055 8.53223 1.17188 11.5742c-0.331055 1.57617 -1.11133 3.16699 -2.42383 4.25s-2.90625 1.4707 -4.20508 1.52148z" />
    <glyph glyph-name="グリフ 31" unicode="&#x30d8;" horiz-adv-x="578" 
d="M171.283 612.547c-0.665039 0.00683594 -1.33594 0 -2.01172 -0.0234375c-4.50781 -0.155273 -9.24512 -1.0332 -13.7754 -3.33984c-4.00293 -2.03809 -7.80078 -5.54297 -10.1133 -10.2129c-35.5557 -45.4453 -67.9189 -113.005 -103.24 -166.178l-23.0391 -19.6738
l75.3223 -10.916l21.0859 5.62891l31.6523 60.5703l46.4277 63.3105l115.768 -53.7852l95.8086 -64.0332l54.127 -53.7617l20.0391 -12.0684l36.4258 0.347656l25.1309 25.2598l-77.0352 85.9941l-120.994 86.3535l-112.961 49.0059l-46.1797 15.1367
c-3.85742 1.58203 -8.01953 2.33496 -12.4375 2.38477v0z" />
    <glyph glyph-name="グリフ 32" unicode="&#x30db;" horiz-adv-x="488" 
d="M186.473 742.348l3.9375 -6.56055l8.2832 -13.8008l2.52539 -7.56445v-97.5254l-56.627 -1.08008l-41.0156 4.10938c-3.91309 1.05176 -7.97949 0.607422 -11.4258 -1.38477c-3.64941 -2.10938 -6.62598 -5.625 -9.25195 -10.25l-0.0175781 -0.0332031l-19.9355 -36.9844
l-0.0957031 -0.275391c-0.173828 -0.506836 -1.03711 -1.89746 -2.0293 -3.39258c-0.991211 -1.49414 -2.23047 -3.06348 -2.55469 -5.60742c-0.162109 -1.27148 0.102539 -2.93359 1.01758 -4.2168c0.916016 -1.28223 2.21973 -2.06152 3.61523 -2.57812
c2.79297 -1.03223 6.35645 -1.31055 11.8809 -1.17383h0.0117188l126.869 3.90234l4.25 -183.457c-2.44629 -6.61328 -6.22656 -13.0811 -9.26953 -20.2656c-3.09766 -7.31445 -5.32422 -15.5205 -3.89258 -25.0605l2.90625 -45.4316l0.826172 -0.917969
c3.09277 -3.44043 8.35352 -13.585 14.7285 -21.6816c3.1875 -4.04785 6.73926 -7.7207 11.0977 -9.88867c4.25879 -2.11719 9.51953 -2.41797 14.4648 0.0898438c7.22949 2.5332 13.3584 9.74219 17.916 19.0566c4.57715 9.35547 7.38672 21.0049 6.42383 32.8379
l-3.76953 106.4l4.70312 149.135h104.803c30.9072 -1.57422 37.5713 1.13477 47.7676 2.86914l3.3418 0.568359l-5.24609 43.0996l-0.712891 0.822266c-3.27441 3.76855 -5.99316 8.72754 -10.8936 12.9336c-4.90137 4.20605 -11.998 7.2002 -22.9082 7.14453
l-0.300781 -0.00195312l-37.7354 -6.61328l-76.1309 -1.4668l0.03125 0.498047l7.57812 96.459l-0.0390625 0.341797c0.00878906 -0.0595703 0.0625 0.537109 0.40625 1.5c0.344727 0.962891 0.919922 2.21582 1.11133 3.96094
c0.192383 1.74512 -0.418945 4.23633 -2.10156 5.82617c-1.68164 1.59082 -3.88281 2.4375 -6.91016 3.09766l-0.09375 0.0214844zM105.066 465.123c-1.0498 -0.0185547 -2.12891 -0.0605469 -3.23828 -0.125l-1.55273 -0.0898438l-35.4961 -43.1641l-27.75 -17.2246
l-20.5254 -44.9766l-0.0273438 -0.703125c-0.183594 -4.91406 0.0625 -10.5029 3.0918 -16.2246c3.02832 -5.72168 8.6416 -11.3408 18.4375 -17.1367l0.789062 -0.466797l0.914062 -0.0273438c12.2129 -0.368164 23.0303 4.77148 32.4512 13.1055
c9.3623 8.28223 17.5479 19.7266 25.2432 32.707l36.166 46.6367l0.183594 0.708984c3.12109 12.0625 4.95801 23.4189 1.19531 32.5977c-1.88086 4.58984 -5.35352 8.49219 -10.3516 10.9512c-4.99707 2.45898 -11.3965 3.58887 -19.5312 3.43164h0.000976562z
M383.086 464.186l-0.949219 -0.214844l-29.6328 -6.6875l-0.384766 -0.191406c-6.70996 -3.34277 -11.0137 -8.25391 -13.1895 -13.8652c-2.1748 -5.61035 -2.34863 -11.7393 -1.73047 -17.9629c1.23633 -12.4453 5.6123 -25.6787 6.35352 -36.6396l0.0957031 -1.41016
l1.03906 -0.958984c6.60352 -6.10547 12.5898 -14.1572 19.668 -21.1064c6.88184 -6.75586 15.1143 -12.4531 25.8887 -13.5879l46.2832 -20.2383l1.33398 0.482422c4.91309 1.7793 12.751 1.56641 19.0645 5.73047c3.15723 2.08203 5.68359 5.65527 6.39258 10.4043
c0.708984 4.75 -0.0761719 10.6035 -2.55273 18.4355l-0.181641 0.576172l-37.0195 49.373c-6.27246 9.89258 -11.6484 20.1084 -17.625 28.7246c-5.99707 8.64648 -12.7256 15.873 -21.9297 18.8379z" />
    <glyph glyph-name="グリフ 33" unicode="&#x30e4;" horiz-adv-x="534" 
d="M137.137 702.229l2.33398 -8.63086l20.1094 -74.3818l7.90625 -65.1396l-88.3242 -18.4521l-17.7402 -4.08008l-0.210938 -0.0644531c-2.06152 -0.62207 -5.53809 -0.939453 -9.55273 -3.06445c-4.01367 -2.12598 -7.76465 -6.69434 -9.24023 -12.8711l-14.5527 -55.0879
c-0.936523 -2.23145 -1.79883 -5.07715 0.0957031 -8.48828c1.02051 -1.83691 2.85254 -3.12207 4.33398 -3.66602c1.48242 -0.543945 2.68848 -0.605469 3.74414 -0.589844c4.10156 0.0585938 7.19531 1.33105 10.4629 2.41992l130.994 29.6309l29 -166.252
l11.9531 -49.9453l7.41992 -39.4736l0.136719 -0.414062c3.43164 -10.4551 11.9443 -16.3613 20.6582 -18.2852c8.71387 -1.92285 17.8857 -1.08691 26.5312 -0.513672l0.753906 0.0488281l0.724609 0.220703c7.11523 2.15234 12.0762 7.09473 14.8945 12.3301
s4.01758 10.6992 5.24023 15.5625l0.349609 1.39062l-11.2734 61.9004l-25.7344 170.117l-4.83203 30.4727l122.357 27.6816l0.306641 -0.275391l-22.5156 -50.3516v-27.7832l0.580078 -1.29297c5.82812 -12.998 13.1152 -26.5342 27.6152 -31.998l0.435547 -0.164062
l12.7773 -2.85938l0.371094 -0.0390625c8.02832 -0.865234 14.6436 1.66504 18.6738 5.51758s5.87402 8.03711 7.69141 10.6426l0.279297 0.400391l35.9551 72.3555l29.4785 48.2266l17.8457 39.6465l-47.6191 41.0273l-36.7227 -7.9082l-23.0723 -8.04492
l-156.627 -37.7461l-7.8457 49.5781l-14.7207 63.3242c-0.319336 4.18555 -2.04785 8.26855 -5.23438 10.5859c-3.42773 2.49219 -7.12305 2.80957 -10.377 2.73047z" />
    <glyph glyph-name="グリフ 34" unicode="&#x30e6;" horiz-adv-x="558" 
d="M376.885 590.523l-4.05664 -0.320312l-37.1699 -2.92969l-96.5156 -1.96484l-76.7051 1.97266l-0.240234 -0.0253906c-14.1221 -1.44434 -20.5967 -10.6973 -25.877 -18.2461l-0.0957031 -0.138672l-34.2285 -59.7646
c-1.09766 -1.40625 -1.94043 -2.83398 -2.16797 -4.66504c-0.244141 -1.9668 0.768555 -4.27246 2.19141 -5.44824c2.8457 -2.35059 6.05371 -2.44922 10.084 -2.5625l0.136719 -0.00195312l154.281 6.86719l53.6113 2.74219l3.60742 -108.635
c-0.015625 -0.210938 -1.99414 -29.1064 -3.4668 -45.8828l-130.873 -2.08008l-89.291 -1.94531l-34.4512 6.28125l-43.6172 -74.7754c-2.12305 -2.57031 -3.51562 -4.8457 -3.82422 -7.42188c-0.329102 -2.75098 1.23633 -5.51855 3.05469 -6.87695
c3.63672 -2.71582 7.92285 -3.04004 10.9531 -3.9707l0.648438 -0.199219l181.904 10.8008l233.881 0.982422l44.1875 -6.99805l1.0625 0.515625c9.28125 4.49707 17.5322 9.7207 23.3633 16.6797c5.70312 6.80762 8.83105 15.4521 7.96094 25.6445
c1.32812 7.91895 0.369141 14.8779 -3.07617 20.4023c-3.50195 5.61523 -9.31836 9.47266 -16.6152 11.877l-0.574219 0.1875h-18.5234l-80.4395 9.23047c0.0429688 0.555664 0.0820312 0.923828 0.128906 1.5957c0.225586 3.24805 0.494141 7.85156 0.800781 13.5332
c0.614258 11.3643 1.37988 27.0273 2.24805 44.5625c1.70312 34.4307 3.79688 75.8408 5.85938 106.121c6.21582 3.57715 11.8984 9.72168 16 20.4199l0.773438 2.02148l-1.35352 1.68164c-15.9922 19.9111 -31.8076 41.9854 -53.5762 49.2676v1.46582z" />
    <glyph glyph-name="グリフ 35" unicode="&#x30e8;" horiz-adv-x="412" 
d="M298.969 627.135l-1.05273 -0.0332031c-2.44043 -0.0771484 -5.13281 -0.183594 -8.0293 -0.443359l-2.4375 -0.216797l-9.88867 -5.92773l-88.6367 -3.43359l-62.2012 1.52148l-0.224609 -0.0078125c-2.7002 -0.0478516 -5.5498 -0.176758 -8.96484 -1.39453
c-3.22168 -1.14844 -7.43359 -4.19727 -9.27148 -8.62695l-28.7285 -64.2402v-2.27734c0 0.136719 -1.94043 -2.43652 1.11914 -9.14648c1.53027 -3.35449 5.94629 -6.62793 9.42578 -7.29688c2.76758 -0.53125 4.94727 -0.24707 7.10352 0.205078l149.365 0.505859
l21.4121 3.15234l2.07227 -11.6758v-50.7383l-28.1387 -2.70898h-91.8848l-6.63086 0.380859c-1.29297 1.04102 -2.72168 1.98047 -4.38281 2.57031c-4.33887 1.54199 -8.67969 1.06738 -12.6289 -0.117188l-4.25781 -1.27734l-31.2188 -58.4922l-0.203125 -2.12305
c-0.460938 -4.80664 -0.532227 -10.627 2.34766 -16.5371c2.87891 -5.91016 8.81738 -10.6572 16.0098 -13.0879l2.08203 -0.703125l22.3281 1.79102l36.5938 11.0352l100.217 0.771484l0.244141 -62.6133l-110.594 -3.22852l-50.2754 4.23438l-13.4961 11.1602
l-5.49609 -1.68164c-3.10645 -0.950195 -6.76953 -2.28613 -10.1211 -5.2168c-3.35254 -2.93066 -5.60742 -6.99316 -7.02148 -11.252l-0.00976562 -0.0351562l-19.6719 -60.5332c-1.52051 -3.05762 -2.70703 -6.13379 -2.92188 -9.79492
c-0.249023 -4.22949 1.51367 -9.57617 4.94336 -12.7656c6.69336 -6.22559 13.749 -5.61816 21.2012 -4.87695l127.024 2.51758l74.2832 3.49609l31.3945 -6.47266l0.800781 -0.0429688c11.2285 -0.599609 21.9287 0.198242 31.7402 4.22461
c9.8125 4.02637 18.3213 11.6211 23.8848 22.2461l0.855469 1.63477l0.257812 1.82812c2.45312 17.4189 2.99902 36.5635 -6.01953 55.0781l-3.40625 226.81c1.11816 0.732422 2.24121 1.33789 3.33203 2.35938c3.58984 3.35645 6.3125 8.34277 7.49414 13.9883
l0.404297 1.92578l-0.310547 1.94336c-1.31152 8.21973 -2.06152 17.7109 -4.88281 27.2949c-2.82129 9.58301 -8.36523 19.7031 -18.7559 26.1855l-0.681641 0.425781l-0.738281 0.318359c-11.709 5.05371 -25.377 9.22559 -42.2559 9.39648
c-0.763672 0.0078125 -1.54883 -0.00488281 -2.33203 -0.0117188z" />
    <glyph glyph-name="グリフ 36" unicode="&#x30ef;" horiz-adv-x="588" 
d="M165.809 683.801l12.1973 -23.2812l-2.22852 -147.479l-9.97852 -64.3027l33.2598 -48.7949l38.8164 14.4121v56.5547l2.71484 128.897l168.845 7.42578l12.4961 -27.6602l-11.0859 -158.565l-85.3828 -194.033l-102.012 -100.902
c-184.351 -81.1924 -83.4541 -44.9297 8.86914 -12.1973l160.784 123.078l85.3828 175.187l15.5195 172.979l-5.17188 27.7988l27.3477 24.3105l15.5215 21.0664l-31.043 -2.21875l-259.1 -9.87305l0.751953 35.3867z" />
    <glyph glyph-name="グリフ 37" unicode="&#x30f2;" horiz-adv-x="493" 
d="M383.951 701.578l-15.5059 -12.4043l-227.947 -10.8555l-8.14062 6.97852c-1.55273 0 -38.3789 -75.9824 -38.3789 -75.9824c-2.64453 -4.22949 0.0380859 -4.73926 4.65234 -3.87695h264.389l-0.775391 -82.1855l-230.274 -8.5293
c-5.39551 2.59473 -8.99414 5.79004 -23.2617 5.42773l-21.707 -66.6777l269.815 13.9551l-3.10156 -55.8242l-80.6348 -125.604l-128.705 -86.0625c-107.747 -34.626 -30.9229 -15.4697 9.30273 -6.97852l197.709 104.673l49.624 85.2852l19.3828 111.647l8.5293 158.943
l10.0801 1.55078c-7.57812 20.8926 -33.8594 32.4326 -55.0508 46.5195z" />
    <glyph glyph-name="グリフ 38" unicode="&#x30f3;" horiz-adv-x="538" 
d="M475.357 676.102l-239.859 -348.112c-13.2158 -17.2178 -33.3721 -25.5107 -54.6914 -32.3105l-106.883 -3.72656l-37.2793 -60.9043c14.7441 -4.3125 30.5254 -7.58398 38.5215 -18.6406l165.301 8.69922c18.7617 3.60742 37.332 7.40527 43.4941 23.6113
l137.949 265.969l4.96875 50.9492zM90.4531 642.705c-13.4561 -4.6123 -3.49219 -12.415 0.00195312 -19.3379l92.2676 -142.363l-3.50781 -24.6074l61.8418 67.3301c8.99707 8.34277 7.30078 8.53027 -0.777344 16.5996l-79.5293 79.5312
c-9.0459 14.4062 -66.3721 21.9619 -70.2969 22.8477v0z" />
    <glyph glyph-name="グリフ 39" unicode="&#x30a2;" horiz-adv-x="565" 
d="M163.768 746.549l-38.9004 -85.9492c-1.83789 -2.47461 -3.93164 -5.05273 4.46484 -3.43359l298.332 -1.03711l14.7188 -19.9746l-51.5176 -132.475l-29.4375 -27.3359l9.46094 86.2129l-93.5723 52.5703l24.1816 -46.2617l-35.7461 -249.178l-74.6484 -106.189
c-174.993 -65.9561 -57.874 -30.3086 13.668 -10.5137l98.8301 89.3672l47.3105 77.8027l14.7207 82.0078l58.877 37.8496l99.8809 115.652l-28.3867 127.217l19.9775 12.6172l-341.699 -5.25781c-4.26074 -0.824219 -5.44727 6.02832 -10.5137 6.30859h-0.000976562z" />
    <glyph glyph-name="グリフ 40" unicode="&#x30a6;" horiz-adv-x="490" 
d="M217.586 780.119c-2.77539 0.0439453 -5.32812 -0.298828 -7.625 -1.08984l9.19141 -121.473l59.4219 37.8604l9.15039 42.04l8.33984 6.54688c-28.7637 16.5781 -59.0488 35.8086 -78.4785 36.1143v0.000976562zM42.4531 696.307l24.6133 -279.703l62.1543 51.6914
c10.791 6.63379 7.26074 12.2158 5.40625 23.7441l-10.6309 66.0781l8.18945 16.041l-3.17383 5.76367l194.746 6.54688c13.4912 2.56836 8.89355 -6.85352 8.11133 -15.4648c-3.87305 -42.6807 -11.7344 -138.256 -11.7344 -138.256l-224.695 -240.006
c50.5527 23.4512 86.7422 63.3389 151.658 70.3535l157.59 158.422l13.0664 217.023l19.7949 13.002l-353.227 9.59961c-8.46484 19.9883 -14.8975 31.6016 -41.8701 35.1641h0.000976562z" />
    <glyph glyph-name="グリフ 41" unicode="&#x30a4;" horiz-adv-x="481" 
d="M353.818 745.734c-4.17773 -0.0117188 -6.86133 -0.612305 -7.3125 -1.98438l10.291 -20.582s5.87109 -73.7676 6.86133 -79.75c2.81934 -17.0352 -53.6348 -113.538 -54.0312 -112.347l-205.804 -241.828c-79.3574 -79.3428 -37.584 -50.7607 5.99414 -20.5801
l188.314 151.863l3.7793 -59.2461l-6.85938 -163.801l5.15234 -116.629l13.7207 54.8848s10.2871 73.7578 11.1445 77.1875c0.856445 3.42969 32.582 120.914 32.582 120.914l8.32227 141.393l9.69531 7.81836l35.1582 39.4551
c36.1738 71.418 28.416 137.957 24.8652 204.961c-0.545898 3.2832 -57.2705 17.5098 -79.9961 18.2402v-0.00195312c-0.655273 0.0224609 -1.28223 0.0351562 -1.87891 0.03125z" />
    <glyph glyph-name="グリフ 42" unicode="&#x30a8;" horiz-adv-x="706" 
d="M145.66 637.836l-15.1641 -25.1152c1.82617 -5.83105 -32.7129 -39.0176 -32.7129 -39.0176c15.0674 -22.7295 89.4736 1.87793 134.211 2.81445l17.7461 -54.8711l-20.8887 -147.471l-9.74023 -1.20508l-158.738 2.92383
c-16.209 -13.4775 -29.8643 -28.6191 -29.8789 -52.6523c-0.0751953 -5.9248 -7.71582 -14.2246 3.74609 -16.5566l140.459 11.3203l156.164 -2.98633l174.717 14.1211l92.1113 27.7598c38.1855 2.55176 45.1816 7.8877 62.3789 12.3125l-49.1094 11.5254l-283.166 5.70703
l-22.4492 -2.78906l3.14258 115.936l5.78125 78.6387l35.5918 0.742188l82.8555 18.7031c26.5059 10.0859 48.4346 20.5342 49.9805 32.5859l-121.905 5.79492z" />
    <glyph glyph-name="グリフ 43" unicode="&#x30aa;" horiz-adv-x="706" 
d="M374.633 775.162l22.4375 -35.7695l-5.42969 -63.7988l-138.893 -5.94141c-14.835 -3.25684 -35.7715 -2.70215 -38.8086 -13.332c-26.1094 -1.97363 24.709 -51.8027 52.1543 -53.3711l110.492 3.4043l-79.5684 -146.504l-58.2109 -88.5391l-140.084 -73.9785
c-54.1328 -26.1387 -28.1357 -20.2246 7.88281 -10.3027l114.002 29.0977c28.4814 7.32227 52.9844 22.6025 73.3809 46.0957l96.8496 142.582l-1.6543 -126.222l0.607422 -86.7139l-63.0645 -88.5273c-35.6367 -33.0508 -9.05859 -15.085 10.3164 -3.02734
c37.5635 27.1465 80.4102 43.7236 112.176 82.4688l0.609375 122.491l10.9121 171.604l4.12891 33.877l63.791 3.71484c24.2217 16.2559 49.7012 32.6523 53.9648 46.6914c81.168 30.0166 41.9707 22.166 26.6777 21.8359l-142.351 -4.82812l-4.38867 60.6191
c5.93457 1.13184 9.40918 8.41504 12.1309 17.5781c-28.792 21.0898 -65.1182 17.6914 -100.061 18.7949h-0.00195312h0.000976562z" />
    <glyph glyph-name="グリフ 44" unicode="&#x30ab;" horiz-adv-x="634" 
d="M258.318 793.092l0.546875 -140.238l-39.1172 -2.58203c-14.1143 -14.0049 -25.9355 -30.2578 -30.8496 -53.2764c17.2793 -17.5869 40.0703 -28.0859 65.5547 -35.124l4.78516 -2.63672l0.617188 -158.321l-211.32 -325.299
c-13.9912 -19.5977 -20.1914 -31.5078 1.53906 -15.8594l256.059 306.018l15.4258 40.8027l10.5234 152.779l88.9668 11.582l12.6777 8.41797l17.4043 -50.3672l-23.9121 -225.541l-122.623 -40.8027l13.1094 -5.67969l-20.8281 -20.3945
c22.4141 -0.796875 29.4033 -5.71973 67.3574 -2.36914c27.4951 -7.77148 59.0703 -8.34473 93.834 -3.29688c18.3066 1.22168 23.7783 10.8281 29.3145 20.3926l19.2793 71.4102l-4.30859 302.254l39.7793 26.4336c27.0039 15.0186 7.28516 15.1113 3.86523 20.4102
l-207.104 -13.6699l7.3457 106.604s-74.8066 20.4141 -87.918 28.3477z" />
    <glyph glyph-name="グリフ 45" unicode="&#x30ad;" horiz-adv-x="580" 
d="M201.506 814.135c-11.8428 -0.00683594 -22.7227 -0.462891 -30.2793 -1.31445l-0.00195312 -0.00585938l1.63281 -16.9844l16.25 -80.0469l4.28516 -28.957l-44.3301 -3.71484l-37.3418 -3.00391c-20.9629 -8.93555 -35.9785 -22.3096 -39.6484 -44.1523
l126.402 -3.00391l2.80859 0.388672l8.94922 -60.6582l6.43359 -38.4453l-109.543 -5.91406l-15.5215 -0.855469c-34.3701 -17.7969 -41.6436 -39.6377 -55.7266 -60.4629l86.7539 -5.56641l104.565 3.00391l1.14453 0.123047l3.01562 -18.0059l43.8809 -252.26
c33.5957 -142.136 39.248 -56.3506 35.7461 -19.4043l-1.63086 88.5273l-4.87305 133.418l-15.0547 73.9648l63.582 6.49805l72.9668 51.4531c97.7109 34.4229 85.9717 37.3398 32.7441 28.3105l-176.94 -19.3008l-5.89844 -0.324219l-18.5215 91.0371l-0.728516 12.4141
l42.3887 5.78711c29.5303 9.95996 42.9971 24.415 55.5234 39.1348c56.5576 13.3828 60.4131 29.1182 41.2168 21.5234l-142.095 -15.4707l-4.42383 76.0762c-3.47656 17.6455 10.0859 24.3887 21.125 32.748c10.8711 9.45117 -33.3271 13.4648 -68.8574 13.4434
h0.000976562z" />
    <glyph glyph-name="グリフ 46" unicode="&#x30b1;" horiz-adv-x="556" 
d="M133.309 761.205l3.47852 -3.93555l-9.90625 -1.74219v-5.04883l1.53516 -0.191406l11.7734 -32.5684l-17.0156 -85.084l-62.2812 -120.605c-12.7207 -16.6094 -20.5957 -27.7832 -24.5293 -34.873c-1.99805 -3.60059 -3.57812 -5.52637 -3.22656 -9.84766
c0.0888672 -1.08008 0.446289 -2.48828 1.43945 -3.75586c0.994141 -1.2666 2.55273 -2.10352 3.81055 -2.38477c2.5166 -0.5625 3.94629 0.0605469 5.30664 0.576172c5.44336 2.06543 11.3906 6.77148 19.8867 13.6191c8.49707 6.84863 18.8047 15.7285 29.8672 25.4531
l0.517578 0.457031l85.5918 123.115l122.369 6.33398l-8.06836 -143.695l-31.2031 -104.534l-121.682 -125.619c-57.6455 -31.7754 -88.1416 -49.2578 -100.668 -57.3867c-3.15625 -2.04883 -5.10938 -3.38379 -6.67969 -4.8418
c-0.392578 -0.364258 -0.777344 -0.728516 -1.23242 -1.34375c-0.455078 -0.616211 -1.31348 -1.44043 -1.29297 -3.83008c0.00976562 -1.19531 0.542969 -2.78711 1.45508 -3.83203c0.912111 -1.04492 1.93848 -1.51758 2.67188 -1.75586
c1.46582 -0.477539 2.15918 -0.335938 2.76758 -0.28125c2.43164 0.21582 3.86914 0.858398 6.37109 1.77148c2.50195 0.912109 5.58301 2.14648 9.16797 3.64648c14.3398 5.99902 36.6719 16.2246 57.2324 25.5117s39.9141 17.7773 45.7969 19.6074l0.789062 0.242188
l157.967 105.584l46.2168 114.33l20.0059 126.438l4.7168 54.3594l37.0059 1.92773l37.1074 29.0254c17.6035 4.43555 30.1025 7.86719 37.8926 10.4082c4.02246 1.3125 6.89062 2.37988 9.08594 3.45508c1.09766 0.538086 2.02148 1.02637 3.06445 1.91992
c0.521484 0.447266 1.11133 1.00098 1.67578 2.00781c0.56445 1.00683 1.05469 2.7207 0.677734 4.42773c-0.75293 3.41504 -3.17871 4.30859 -4.36914 4.74805c-1.18945 0.439453 -2.13672 0.575195 -3.18164 0.701172
c-2.08887 0.251953 -4.49414 0.300781 -7.375 0.265625c-5.58691 -0.0683594 -12.9238 -0.524414 -20.7793 -1.07812l-29.6094 4.00781l-54.5449 -6.41406l-185.949 -6.6582l7.36328 27.6309c1.52051 3.66797 0.691406 7.92383 -1.08203 10.9395
c-1.875 3.19043 -4.59863 5.76172 -7.86133 8.28906c-6.52344 5.05566 -15.4297 9.77441 -24.9141 14.0996c-9.4834 4.3252 -19.501 8.18066 -27.9766 11.0723c-8.47461 2.8916 -14.9023 4.80371 -19.1797 5.33789v-0.000976562z" />
    <glyph glyph-name="グリフ 47" unicode="&#x30af;" horiz-adv-x="384" 
d="M154.508 806.199c-0.521484 0.0078125 -1.07129 -0.00292969 -1.80859 -0.244141s-1.86133 -0.916016 -2.37695 -2.14062l-0.259766 -0.621094v-0.810547l0.015625 -0.140625c0.390625 -4.49023 1.14551 -8.75586 1.12891 -12.543
c-0.0146484 -3.78711 -0.680664 -6.95996 -3.0332 -10.0176l-0.236328 -0.300781l-56.6328 -124.881l-40.1875 -60.2793l-0.0292969 -0.0390625c-3.31836 -5.30078 -7.18848 -11.1748 -10.3867 -16.4023c-3.19824 -5.22852 -5.76367 -9.35645 -6.49609 -13.1699
c-0.182617 -0.954102 -0.329102 -2.0166 0.220703 -3.35742c0.549805 -1.3418 2.25 -2.49902 3.56641 -2.65039c2.63379 -0.304688 4.25977 0.728516 6.8125 2.19141c5.10547 2.92383 12.9902 8.85742 25.373 19.2305l0.132812 0.111328l120.664 125.151l69.6543 -0.783203
c-0.445312 -3.29883 -3.1748 -23.5625 -6.50195 -47.4141c-1.79395 -12.8594 -3.62988 -25.7969 -5.09375 -35.668c-0.731445 -4.93555 -1.36816 -9.10742 -1.86133 -12.0996c-0.246094 -1.49609 -0.458008 -2.69824 -0.619141 -3.5293
c-0.0800781 -0.415039 -0.145508 -0.739258 -0.191406 -0.929688c-0.0224609 -0.0947266 -0.0761719 -0.205078 -0.0839844 -0.212891c-0.261719 -0.599609 -0.19043 -0.695312 -0.255859 -1.01953c-0.078125 -0.388672 -0.15625 -0.84082 -0.244141 -1.39453
c-0.175781 -1.10742 -0.389648 -2.59766 -0.634766 -4.44336c-0.490234 -3.69043 -1.11621 -8.79102 -1.83008 -14.832c-1.42773 -12.082 -3.20605 -27.9287 -4.94727 -43.6992c-3.46973 -31.4336 -6.75293 -62.3291 -6.77539 -62.541
c-7.03711 -35.9092 -10.4277 -63.8926 -20.3008 -91.541l-69.3535 -86.7754c-44.3135 -38.6777 -72.9629 -64.7539 -88.8477 -80.5879c-7.96484 -7.93945 -12.6875 -13.1436 -14.9551 -16.8086c-0.566406 -0.916016 -1.01074 -1.72559 -1.27734 -2.77539
c-0.266602 -1.04883 -0.28418 -2.92285 1.04102 -4.21484c1.3252 -1.29102 2.77051 -1.25293 3.76367 -1.1582c0.993164 0.0957031 1.87598 0.352539 2.87305 0.707031c3.98926 1.4209 9.78027 4.63574 17.7461 9.50781c7.96582 4.87305 17.9463 11.3838 29.6074 19.2383
c23.3223 15.7109 53.335 36.8037 87.0039 60.8418l0.287109 0.207031l0.236328 0.257812c51.1982 56.416 101.19 113.08 119.063 172.795l0.0517578 0.185547l41.915 241.64c5.44727 6.84668 13.1123 13.9248 13.4785 26.5879l0.0390625 1.24023l-0.791016 0.960938
c-16.2793 19.7979 -39.666 28.8779 -63.2695 36.6289l-1.11523 0.369141l-33.1953 -12.6602l-31.0566 -1.625l3.33594 22.5371v0.244141c0 2.08301 -0.829102 2.31738 -1.17969 2.66406c-0.351562 0.345703 -0.65332 0.572266 -0.990234 0.8125
c-0.675781 0.480469 -1.4834 0.969727 -2.48633 1.54297c-2.00684 1.14648 -4.75977 2.57617 -8.0625 4.21484c-6.60645 3.27637 -15.3711 7.35254 -24.2051 11.2285c-8.83398 3.875 -17.7158 7.54199 -24.5957 10.0234c-3.44043 1.24023 -6.3584 2.18652 -8.66602 2.72461
c-1.1543 0.268555 -2.12988 0.449219 -3.17383 0.464844z" />
    <glyph glyph-name="グリフ 48" unicode="&#x30b3;" horiz-adv-x="434" 
d="M337.16 713.088l-4.16211 -3.89844l-22.5527 -0.980469l-152.584 -18.1758l-46.084 -10.2969l-0.257812 1.04883l-6.93945 -2.49609c-0.180664 -0.0654297 -0.381836 -0.112305 -0.583984 -0.132812l-11.4707 -1.00391l-1.41016 -4.06055
c-7.63184 -21.9912 -13.1777 -42.6396 -12.9922 -63.0996l0.0742188 -7.86914l203.518 36.6445l7.97266 1.14258l3.33008 -8.91602l19.8789 -87.2617c-0.00292969 -0.384766 -0.133789 -2.18359 -0.892578 -5.71289l-45.8789 -113.092
c-1.26367 -0.647461 -2.6084 -1.04395 -4.05273 -2.16992c-1.95996 -1.52832 -4.8291 -4.23926 -7.93555 -7.24805l-172.006 -10.6816l-1.48438 -0.990234c-20.7861 -13.8203 -32.0127 -32.9219 -39.6094 -54.2266l-2.71094 -7.5957l55.0996 -8.30469l189.922 11.6113
l1.81445 1.97852c40.5098 44.2529 68.5264 89.2607 85.8516 135.108l-0.0292969 -0.0878906c-0.0507812 -0.129883 -0.0712891 -0.15918 0.0214844 0.0449219l1.89062 4.18555l-0.480469 0.478516c10.9023 29.5078 10.8691 59.125 5.98047 89.7637v6.5332h-0.945312
c-5.82227 45.7441 -15.0215 88.4453 -36.0391 122.808zM264.465 419.244c-0.0185547 -0.0341797 0.046875 -0.246094 0.0292969 -0.287109c-0.00195312 0.0341797 -0.0644531 0.0996094 -0.0664062 0.130859c-0.00195312 0.0507812 0.0400391 0.110352 0.0371093 0.15625z
" />
    <glyph glyph-name="グリフ 49" unicode="&#x30b5;" horiz-adv-x="610" 
d="M371.637 858.916c-15.5967 0.0380859 -29.5234 -1.77539 -40.166 -5.42188l-5.34375 -1.83008l0.382812 -7.77344l1.18164 -1.73438c3.63965 -5.3623 3.60742 -7.96387 6.62891 -14.041c2.77246 -5.57422 8.26953 -12.7158 19.2949 -23.5566l-4.14062 -110.543
l-101.035 -8.88672l1.01172 18.3438l18.373 41.3672l-3.96484 3.6543c-21.9453 20.1992 -51.7891 20.4316 -76.3281 25.6445l-11.0508 2.34766l6.31836 -33.2324l3.55859 -62.9395l-24.0312 -2.63477c0.0429688 0.0791016 -0.758789 0.412109 -2.23438 1.46875
c-2.02539 1.45117 -4.84082 3.68652 -8.97656 5.01172c-4.13477 1.3252 -9.73145 1.13281 -14.6895 -1.51953c-4.83496 -2.58691 -9.24121 -6.96582 -14.0137 -13.6582c-7.6748 -8.26074 -19.1055 -16.4561 -28.5195 -26.2266
c-9.51465 -9.87598 -17.3516 -22.9512 -13.8203 -38.6152l0.658203 -2.92188l2.48633 -1.66992c5.64062 -3.77539 11.2627 -3.59766 18.3887 -3.59375c7.12695 0.00390625 15.5215 0.685547 24.4863 1.60938c17.9307 1.84766 38.1797 4.68945 52.7656 5.44727
l0.111328 0.0078125l11.293 0.908203l4.00195 -87.2461l0.111328 -0.5625c1.8418 -9.19141 3.875 -16.2939 6.38477 -21.8496c2.51074 -5.55469 5.4834 -10.0869 10.793 -12.3203c5.31055 -2.2334 11.4434 -0.224609 15.3672 2.9375
c3.9248 3.16211 7.0498 7.44336 10.2461 12.793l0.945312 1.59375l6.06055 109.019l59.0781 4.75977l43.4941 -0.191406l-1.46875 -117.271l-28.125 -70.2754l-173.135 -167.221c-56.1621 -35.5479 -85.6631 -54.9287 -97.832 -63.9277
c-3.06348 -2.26562 -4.9375 -3.68555 -6.61523 -5.46289c-0.418945 -0.444336 -0.845703 -0.90332 -1.37305 -1.74219c-0.526367 -0.838867 -1.66211 -2.11914 -1.21094 -5.39648c0.225586 -1.63867 1.26562 -3.62305 2.57617 -4.75977
c1.31055 -1.1377 2.58398 -1.53516 3.48438 -1.72852c1.80078 -0.387695 2.60449 -0.172852 3.30664 -0.0585938c2.80957 0.458008 4.20508 1.23535 6.73242 2.33984s5.59668 2.55859 9.1543 4.31055c14.2324 7.00781 36.21 18.7344 56.4707 29.418
s39.4805 20.5391 45.1641 22.7207l0.818359 0.318359l0.722656 0.494141c79.9336 54.5664 167.325 97.2822 238.916 173.873l1.89648 2.03711l3.19727 77.791l8.84375 124.215l56.4043 -0.273438l75.5762 5.12305l1.69727 4.52539
c7.60449 20.2432 0.81543 45.1426 -12.5566 73.3008l-1.96289 4.13477l-93.1445 3.02734l-19.7402 -1.73633l5.26367 73.9961c5.93164 12.4297 12.2998 25.2227 15.7383 37.4336c1.7793 6.31641 2.81348 12.541 2.21484 18.6914s-3.12305 12.3232 -7.92773 16.9629
l-1.36719 1.31445l-1.82227 0.517578c-19.6777 5.5166 -39.8887 8.58496 -58.2207 9.23438c-2.29102 0.0810547 -4.55469 0.123047 -6.7832 0.128906v0z" />
    <glyph glyph-name="グリフ 50" unicode="&#x30b7;" horiz-adv-x="522" 
d="M463.41 1002.01l-236.631 -650.877c-1.87598 -10.6211 -17.8711 -15.2412 -30.0156 -21.5l-164.174 -64.2617l5.47461 -8.33203l79.793 -38.8633l29.959 -6.57031c108.442 42.6348 157.917 94.3975 184.407 149.717l63.0469 236.437
c3.35352 15.4668 8.78906 31.9111 -0.402344 41.4863zM191.877 676.355c-32.2451 -0.15918 -71.0293 -3.98145 -79.9258 -5.36914c-2.93945 -7.42188 -20.8984 -7.42188 4.24023 -28.7168c33.5332 -29.7744 69.8525 -47.6094 107.967 -57.7402
c29.2793 4.94434 47.041 18.5146 29.4277 58.6328l-16.373 26.4199c-4.27148 5.27344 -23.2725 6.88184 -45.3359 6.77344v0h-0.00023zM82.5781 547.545c-23.5332 -3.58301 -14.3652 -16.6582 -6.89844 -29.2402l87.4922 -68.6543
c9.88867 -9.22949 16.9785 -3.10254 24.5684 0.28125c24.3613 7.44141 21.7256 31.9678 13.6953 59.9082c-1.3125 13.749 -7.83789 21.0615 -17.3672 24.668c0 0 -94.3184 6.35059 -101.49 13.0371v0z" />
    <glyph glyph-name="グリフ 51" unicode="&#x30b9;" horiz-adv-x="924" 
d="M546.371 745.758v-0.00195312l-100.144 -10.8359l-77.7031 -1.96094c-6.7998 5.62598 -11.8809 -4.43848 -16.3926 -19.6973l-24.1719 -54.1719l145.033 17.7363l-16.4062 -96.5234l-68.2031 -114.242l-147.612 -101.444
c-47.623 -24.25 -198.373 -84.1045 -3.45312 -24.6172l153.659 73.8691l65.4531 53.0547l112.38 -136.767l189.063 -65.9883l56.1094 -3.93945c90.335 -8.31445 59.4365 6.04297 11.2324 23.6367l-165.752 72.8711l-139.938 161.322l2.67188 2.17188l35.3896 180.232
c10.1562 25.0781 9.63379 42.4873 -11.2188 45.2949h0.00195312z" />
    <glyph glyph-name="グリフ 52" unicode="&#x30bb;" horiz-adv-x="604" 
d="M151.838 772.473c-2.61133 -0.0205078 -4.86328 -0.421875 -6.64648 -1.27539c-16.8164 -3.18457 -28.0127 -14.748 -3.21094 -42.2441l-5.00391 -82.9668l-1.65039 -31.4688c-26.3633 2.87012 -42.6348 15.8252 -65.6328 15.7695
c-28.9004 -15.2461 -48.1445 -59.3467 -46.0352 -90.2012l103.307 13.3633l0.277344 -98.0898l-14.7734 -107.729c-4.16895 -48.6816 35.749 -57.4316 94.9736 -48.6953l255.084 16.4688c98.0547 11.4883 107.712 21.9277 -26.416 30.6562
c0 0 -193.819 13.1016 -198.787 10.4492c-9.58301 -5.11816 -41.2979 29.8965 -30.9316 45.6113l-0.818359 97.1348l0.320312 57.9238l151.545 14.4355l-44.8086 -87.0957c35.3838 17.4375 71.4893 30.665 102.574 73.1055l17.4043 34.207
c17.6504 35.6914 -22.3027 50.0576 -45.1523 70.7578l-37.3535 -35.1484l-143.884 -11.3301l0.408203 75.9805c13.2148 10.8428 22.3574 24.2207 26.4941 40.7109c2.98438 4.62891 -56.0342 39.8779 -81.2832 39.6719v-0.000976562z" />
    <glyph glyph-name="グリフ 53" unicode="&#x30bd;" horiz-adv-x="687" 
d="M535.451 752.338l8.60938 -59.9609s-7.16992 -128.903 -7.16992 -134.897l-14.3535 -32.9727l-109.082 -142.4l-176.529 -128.9c-116.309 -51.1963 -221.3 -97.9033 2.87891 -13.502l134.894 59.9629c79.4854 50.6299 154.943 120.24 226.774 206.843
c7.73242 41.6826 20.6055 65.4814 21.1074 132.338c10.2109 5.29883 25.9854 14.8838 11.9023 41.5488c-32.459 30.3008 -65.2285 57.0771 -99.0312 71.9434v-0.00195312zM281.803 630.391c-6.29004 -0.00976562 -10.1045 -1.58398 -8.41992 -6.35938
c-0.608398 -15.9072 -2.4707 -42.2969 11.6738 -62.5371l65.4551 -47.6914c32.8555 -22.5361 35.6924 0.227539 45.6641 12.1914c1.2832 17.8203 -5.36523 37.2988 -24.3555 59.3535c-7.23145 21.4619 -55.5449 40.0762 -59.8809 40.8125
c-8.77832 1.48828 -19.3691 3.68066 -27.2969 4.14258c-0.991211 0.0576172 -1.94141 0.0898438 -2.83984 0.0878906v0v0z" />
    <glyph glyph-name="グリフ 54" unicode="&#x30bf;" horiz-adv-x="538" 
d="M290.139 789.627c-1.05078 0.0634766 -1.8457 0 -2.3418 -0.203125l-8.78906 -26.3711l-14.0645 -50.9629l-57.1172 -119.512l-87.8789 -79.9707c-68.1289 -50.209 -26.1221 -28.7021 2.64062 -15.8184l128.9 103.114l96.3066 -162.518l-1.99219 -8.27148
l-65.9141 -104.578l-108.101 -138.842c-159.699 -83.9053 -68.8047 -47.333 7.91016 -17.5781l65.9121 52.7363l149.394 167.836l67.6738 204.77l22.8457 64.1396l8.78906 84.3711c7.88477 22.2188 -2.0625 29.8887 -38.6641 15.8184l-52.7363 -22.8457l-39.8164 1.94141
l4.67383 6.84766c11.5586 15.4111 -61.8701 44.9463 -77.6309 45.8965v0zM330.281 687.564l71.752 -7.10547l-15.8184 -83.4941l-7.83203 -32.5156l-96.5254 59.752l16.4902 13.1885z" />
    <glyph glyph-name="グリフ 55" unicode="&#x30ac;" horiz-adv-x="786" 
d="M641.287 770.699c-3.50293 0.09375 -18.7852 -1.35449 -31.5703 -0.388672l-16.8867 -30.4004l-35.125 -49.9863c-14.8711 -16.9873 -7.68164 -16 1.34961 -13.5098l95.2461 44.582c5.3252 2.91797 10.793 5.73633 7.42969 14.8613
c-3.91113 14.0127 -10.0508 33.1299 -19.9043 34.8008c-0.125 0.0205078 -0.305664 0.0341797 -0.539062 0.0410156v0zM382.492 746.854c-3.83301 -0.0273438 -8.11328 -1.02246 -12.8652 -3.04297l-0.0136719 -0.00195312l-53.0215 -49.6738l11.9473 -37.2598v-0.423828
l-31.5078 -1.01172l-26.2715 7.16211c-3.82715 -2.0459 -7.99707 -2.37891 -10.9902 -8.59766l-31.998 -56.3574c-15.1973 -17.9668 0.80957 -14.4805 13.3672 -13.3672l74.5234 5.24805l10.8203 0.478516l-2.70117 -87.4121l-22.457 -65.9121l-149.021 -131.358
c-110.338 -64.9258 -61.5068 -41.041 0.943359 -9.55469l227.849 156.195l11.4668 42.5098l9.07617 98.8262l99.3457 4.34766l18.6309 -33.4336l-42.5098 -127.054l-26.2715 -59.707l-94.0977 -4.7832c-32.543 6.36523 -65.0547 12.7178 -16.7168 -14.3242l84.7812 -54.0078
l49.4336 -31.0137l38.248 54.1035l66.3594 125.015l26.75 86.457l-59.7051 128.008c-14.3799 19.7559 -35.4912 19.3184 -54.9355 23.8809l-31.041 -30.0859l-55.3594 -1.78516l-1.01172 70.0898c-4.37793 11.666 -11.2529 17.9189 -21.0469 17.8477v-0.000976562z
M677.268 700.732l-19.5879 -10.1328l-53.3652 -35.8008c-26.9736 -18.5391 -32.9043 -28.7422 -12.1582 -28.3711l65.5234 18.2383l46.6094 16.8867c3.45508 17.3232 -3.06348 29.1035 -1.33594 32.0762c0.538086 0.922852 -16.2197 6.27148 -25.6855 7.10352v0z" />
    <glyph glyph-name="グリフ 56" unicode="&#x30b2;" horiz-adv-x="636" 
d="M471.371 826.498c-13.1719 -0.0976562 -28.3818 -7.25488 -31.2344 -14.7949c-5.28809 -13.9756 -18.8359 -33.3623 -25.8594 -51.1211c-13.4668 -34.0537 -30.875 -105.43 -30.875 -105.43c-0.660156 -18.1094 6.32324 -9.00586 11.2266 -7.30859l76.4824 113.02
c34.4062 50.8438 19.5107 65.7783 0.259766 65.6348v0zM528.988 811.959c-8.93652 0.154297 -19.627 -7.10645 -30.4746 -28.0254l-15.4629 -29.8164c-0.730469 -1.40625 -39.332 -84.9414 -39.332 -84.9414c-18.7109 -25.7822 -1.57031 -29.5879 11.877 -18.8516
c0 0 59.6016 55.4912 82.1348 88.1914c7.48438 10.8623 13.2578 37.2852 13.2578 37.2852c4.28223 12.043 -6.07031 35.8828 -22 36.1582h-0.0001zM165.822 722.471v-0.0214844c-3.57812 0.107422 -6.58203 -2.67285 -6.75781 -6.24805l-12.4473 -250.543l-77.7734 -164.188
c-0.375977 -0.793945 -0.588867 -1.6543 -0.626953 -2.53125l-16.1719 -29.5742c-0.27832 -6.41309 23.0869 -2.3125 27.0039 2.77344l120.645 162.203c8.69238 3.90625 12.3643 7.05371 14.377 14.6309l5.51367 101.637l80.6094 2.79688
c-0.675781 -30.3193 -1.83301 -127.468 -1.85938 -129.725l-103.83 -217.38c-14.2129 -18.6973 -8.66406 -28.458 10.7871 -7.26953l173.523 189.839c1.25781 1.37891 1.87012 3.22852 1.68359 5.08594l-16.5352 165.338l77.6699 54.7852l17.3945 7.70703
c2.55371 1.68262 13.915 8.5957 13.4121 11.0059c-0.652344 3.12109 -14.041 1.55469 -17.9629 0.990234l-82.6172 -11.9727c-0.676758 -0.00390625 -114.699 -0.704102 -148.433 -0.570312l4.78516 88.2949c0.192383 3.49316 -2.38672 6.52441 -5.86523 6.89648
c0 0 -51.2861 5.45898 -56.002 5.98047c-0.172852 0 -0.348633 0.0585938 -0.523438 0.0585938v0h0.000976562z" />
    <glyph glyph-name="グリフ 57" unicode="&#x30b0;" horiz-adv-x="774" 
d="M652.883 839.879c-0.853516 -0.0166016 -1.39941 -0.204102 -1.5293 -0.59375l-20.0449 -11.0664l-41.7578 -38l-29.2324 -22.1328c-15.1855 -17.9678 -7.04883 -21.6094 16.7051 -15.6582l84.5605 26.7246l15.2422 7.30859
c11.9775 12.1865 6.41602 23.6084 6.68164 35.2852l-3.9668 4.80273c0.401367 5.21582 -20.6836 13.4453 -26.6582 13.3301v0zM378.197 742.367c-11.5479 0.264648 -10.2246 -9.55859 -2.24414 -24.5996l8.35352 -46.7695l-43.4297 -82.6836l-73.4961 -83.5176
c-76.6348 -58.8955 5.89258 -9.0957 11.6934 -11.6934l95.209 57.627l48.4414 45.9355l10.0215 27.5605l65.9785 3.3418l-1.67383 -61.8027l-12.5273 -91.0352l-116.924 -177.06l-142.816 -134.463l-30.0645 -17.5391c-132.164 -48.9121 -9.00879 -9.31348 7.51562 -6.68164
l127.781 67.6504l121.102 96.8809l75.166 100.222l47.6055 149.496l20.043 101.893c-1.20215 9.37891 4.29688 18.3105 -7.51562 28.3965l-29.2324 22.5488c-12.8887 2.22168 -20.5254 -0.496094 -20.043 -10.8574l-80.1777 -2.50391l-6.68164 12.5273l6.68555 30.9004
l-70.9902 5.01172c-3.06055 0.771484 -5.64062 1.16602 -7.7793 1.21484v0zM675.305 741.592c-0.777344 -0.0117188 -1.33984 -0.0908203 -1.60938 -0.230469l-19.8359 -10.2305l-56.793 -38.627c-1.11426 -10.458 -7.31641 -23.6953 20.8809 -18.166l55.748 0.416016
c18.4961 -0.0371094 16.8096 13.1328 22.1309 21.7148c4.34375 13.7354 0 21.4463 0.416016 31.1113h0.00195312c0.456055 10.7676 -15.499 14.0938 -20.9395 14.0117v0v0z" />
    <glyph glyph-name="グリフ 58" unicode="&#x30b4;" horiz-adv-x="586" 
d="M425.355 803.371c-2.39746 0.0302734 -5.31445 -1.23633 -9.25781 -5.07227l-47.6836 -93.3359c0.4375 -9.84863 6.70117 -9.02148 15.2188 -4.05859l77.1035 23.334c25.5625 3.06641 29.8623 17.5811 20.291 39.5664l-45.6543 34.4941
c-3.46973 1.36621 -6.02246 5.02148 -10.0176 5.07227v0zM470.463 694.619c-4.24609 -0.0078125 -8.82617 -0.591797 -13.7852 -1.83008l-46.668 -26.3789l-56.8145 -29.4219c9.67676 -8.36133 12.7168 -21.9648 46.6699 -11.1602l98.4082 13.1895
c14.6748 8.03711 13.3252 18.7461 12.1758 29.4219c-9.45703 15.4131 -21.5859 26.2139 -39.9863 26.1797v0zM333.92 622.785l-145.078 -5.07227l-56.8125 -8.11719s-35.6162 -78.0391 -38.5527 -82.1758c-7.84863 -11.0605 16.4014 -29.458 24.3477 -24.3496
l166.386 40.582l19.2754 -84.207l-44.6406 -92.3223l-149.136 -10.1445l-22.3203 -8.11719l-34.4941 -73.0449c-0.0488281 -10.6621 9.94043 -13.2861 23.334 -13.1895l191.748 17.2461l45.6523 24.3496l62.9004 121.744v99.4238z" />
    <glyph glyph-name="グリフ 59" unicode="&#x30f4;" horiz-adv-x="660" 
d="M528.688 822.557c-5.6709 0.134766 -11.5557 -2.60059 -14.5186 -6.39648l-30.9043 -39.5957l-47.3223 -41.5293l87.8848 10.625l16.9004 43.9414c6.2627 24.5371 -2.59082 32.7314 -12.04 32.9551v0zM231.611 782.107
c-11.8701 0.0078125 -14.0049 -16.75 -4.82031 -23.5254c10.1484 -10.7344 14.3916 -24.6016 12.3008 -39.0215c-1.7207 -6.37793 4.24219 -20.5166 -6.9707 -17.3125c-25.3223 -0.564453 -50.7373 -0.174805 -76 -1.31836
c-8.4209 7.56348 -26.6611 4.39844 -23.5371 -9.29688c3.54102 -20.8008 6.45898 -41.6504 5.43555 -62.8047c0.271484 -21.1299 0.0380859 -42.292 0.617188 -63.4004c-5.17773 -38.7617 25.3008 -61.29 47.7656 -7.29492c5.82617 13.8936 13.9404 27.083 18.3379 41.4219
c0.226562 10.292 0.431641 20.583 0.650391 30.877c61.7061 1.81543 123.413 3.63184 185.119 5.44727c-3.83789 -24.5391 -6.99805 -49.2314 -15.3594 -72.748c-14.1162 -48.1162 -28.2334 -96.2344 -42.3496 -144.351
c-37.3076 -38.9229 -74.6133 -77.8428 -111.921 -116.766c-29.1836 -20.6338 -60.8516 -38.5322 -87.5391 -62.2559c-94.3076 -56.3223 20.0039 -14.9932 39.123 -2.94727c77.9297 43.0889 152.958 91.123 229.025 137.352c7.55469 10.8096 9.3584 24.9375 14.6074 37.0645
c13.2734 39.21 28.0176 78.0264 40.3711 117.48c7.94336 46.417 15.9102 92.8301 23.8398 139.25c3.25391 21.6582 -17.0107 35.6934 -34.0723 43.2031c-19.1309 -2.29004 -37.8623 -8.66895 -57.4004 -7.01758c-19.54 -0.226562 -39.0811 -0.473633 -58.6211 -0.708984
c2.1543 8.90527 -2.13867 20.9902 6.76367 26.5352c22.4248 18.665 -0.745117 37.5889 -22.3223 36.4629c-26.6826 5.79102 -53.3936 12.3008 -80.541 15.4414c-0.87793 0.157227 -1.71289 0.231445 -2.50391 0.232422zM563.471 765.717
c-1.21387 0.0380859 -2.36621 -0.0429688 -3.42773 -0.259766c-7.81836 -1.59277 -17.8652 -15.9336 -17.8652 -15.9336c2.36523 3.61523 -29.457 -54.5664 -29.457 -54.5664l40.5645 -7.83203l30.9043 12.1777c3.39062 17.4248 15.0322 19.3789 8.69141 55.0488
c0 0 -17.6699 11.0176 -29.4102 11.3652v0z" />
    <glyph glyph-name="グリフ 60" unicode="&#x30b6;" horiz-adv-x="784" 
d="M647.818 828.703c-10.04 -0.0888672 -21.6787 -3.18262 -30.666 -3.20508l-28.6133 -31.0488l-43.0488 -83.1367h7.08984l-5.51367 -5.51172l81.1113 41.7363l40.1602 43.3105c5.41309 31.6924 -5.8457 37.9854 -20.5195 37.8555v0zM442.695 780.371
c-0.330078 0.0107422 -0.644531 0.0078125 -0.943359 -0.0078125c-5.18262 -0.268555 -5.8125 -4.4375 -4.58008 -10.2031l-1.03125 -120.111h-78.4336l0.744141 77.0977l-3.24609 5.68164l-69 1.62305l3.24609 -60.0566l-3.65234 -24.3457h-39.3594
c-10.0908 3.37402 -12.8086 0.0908203 -15.4199 -3.24609l-22.7246 -76.3027c-0.744141 -3.87891 -0.271484 -7.20508 7.30469 -7.30469l47.0703 8.92773l11.4805 0.240234l-1.74219 -11.5801l10.5508 -61.6797c3.51367 -13.0635 17.792 -20.4883 37.332 -25.1582
c10.374 4.11426 23.5801 -3.41602 27.6094 26.7832l8.92773 58.4316l0.121094 14.793l78.5352 1.50586l-0.757812 -89.3398l-60.8672 -105.52l-90.9121 -89.2891c-256.95 -107.424 -65.2773 -49.5625 26.7812 -28.4043l98.2168 43.8242l80.3438 90.9121l25.9863 47.0703
l1.79297 132.285l42.8438 0.830078l24.3477 -4.05664c14.0039 5.09863 25.4834 11.8389 24.3457 26.7812c1.17578 38.3965 -5.66895 47.4717 -18.666 48.7109l-20.2871 0.8125h-51.6035l0.474609 34.8984l-0.808594 64.9238l-4.05859 10.5508l-66.5566 19.4492
c-1.28516 0.286133 -2.41504 0.439453 -3.4043 0.472656v0zM702.988 754.33l-36.0801 -14.9395l-37.9434 -46.4844l-30.7109 -33.8613l74.8086 20.4746l48.0371 28.3496l16.5371 13.3867c14.4238 25.4551 -11.5732 28.4521 -34.6484 33.0742v0z" />
    <glyph glyph-name="グリフ 61" unicode="&#x30ba;" horiz-adv-x="840" 
d="M626.264 892.908l-44.7812 -64.0957l-26.9258 -78.6152l97.0605 70.4492s15.1143 29.1895 10.3633 43.2227c-4.91992 14.5332 -35.7168 29.0391 -35.7168 29.0391v0v-0.0001zM672.012 782.9c-8.37207 -0.205078 -17.3398 -3.23828 -21.6133 -7.51172l-65.2598 -31.4473
l-38.168 -46.4844l85.7988 8.61133l39.1172 33.2832s13.1221 13.0215 16.5137 21.3574c6.81543 16.7471 -4.15234 22.4902 -16.3887 22.1914v0zM507.705 732.701c-1.11328 -0.0166016 -2.2959 -0.112305 -3.55273 -0.292969v-0.00195312l-34.707 -6.92969l-153.391 -11.9023
l-19.9824 -4.11914l-32.6484 -61.666c2.41211 -3.99121 6.70117 -6.37305 16.0781 -4.39453l168.312 10.4824l5.33984 -57.6133l-61.7129 -65.5176l-138.906 -117.93c-56.5293 -61.6465 -125.473 -75.4551 -192.215 -117.955
c-23.4316 -10.7861 0.243164 -4.80957 20.6777 0.0195312l156.508 30.1797l46.6133 25l105.65 79.7578l50.2598 41.418l61.7129 -66.3633l56.1758 -61.9414l83.7676 -25.3809l147.725 -12.6504l-101.823 42.5586l-122.367 80.6504l-87.5371 74.1523l26.0879 21.4961
l22.1719 82.7891l-3.81641 59.5977c10.7344 14.248 9.03516 26.0107 10.3945 38.3848c-6.8584 11.0049 -8.11035 28.4189 -24.8145 28.1719v0z" />
    <glyph glyph-name="グリフ 62" unicode="&#x30b8;" horiz-adv-x="655" 
d="M492.121 843.553l-32.334 -45.2402l-23.9785 -32.209l-19.0449 -65.9199l92.0859 76.6172l32.2207 33.9668s-9.25 16.9453 -16.8496 22.3652c-9.15918 6.53125 -32.0996 10.4199 -32.0996 10.4199zM568.67 764.475l-35.1738 -14.4785l-30.5488 -59.3555
l-33.1953 -25.4941l119.355 45.0723s12.8574 21.8945 9.18555 32.5547c-3.9873 11.5732 -29.623 21.7021 -29.623 21.7021v-0.000976562zM189.555 683.012c-10.168 -0.101562 -14.7344 -10.3252 -16.7676 -25.1348l11.377 -66.8809
c16.7891 -28.0244 37.8789 -25.1436 57.3105 -34.1719c31.7148 -4.5791 30.71 7.77637 36.5742 16.5762l-12.207 43.5566c-15.708 29.9404 -44.7607 47.4443 -72.9473 65.7559c-1.1748 0.212891 -2.28809 0.30957 -3.33984 0.298828v0zM449.168 676.146
c-0.0185547 0 -0.03125 -0.00878906 -0.0390625 -0.0273438c-10.6064 -1.39355 -21.8828 -31.9629 -31.4746 -40.4609l-5.91406 -79.6211l-47.293 -77.7148l-104.143 -87.168l-118.849 -87.1523l-29.4277 -14.7227l-38.9785 -30.5098
c9.24023 -21.373 55.3682 -40.5049 92.1816 -28.3477l54.3223 38.4824s130.184 114.336 141.502 116.6c11.3193 2.26367 76.9707 70.1758 76.9707 70.1758s37.3496 62.251 37.3496 66.7793c0 4.52734 2.26758 116.598 2.26758 116.598
c-6.22754 0 -27.3242 37.083 -28.4766 37.0898h0.000976562zM129.615 566.236c-9.45898 0.126953 -18.918 -2.71484 -28.377 -6.08203l-18.9316 -37.3496l31.0938 -46.4023c34.7324 -18.623 48.6328 -12.8193 66.209 -11.3223l13.5176 29.4297l-35.1348 59.9922
c-9.45898 8.51074 -18.918 11.6064 -28.377 11.7344v0v-7e-05z" />
    <glyph glyph-name="グリフ 63" unicode="&#x30eb;" 
d="M620.756 782.75v-0.002c-54.0726 -3.47037 -71.2992 -14.4127 -79.1406 -30.6836l-9.64453 -547.228c5.02904 -46.9395 22.0504 -38.2891 36.4727 -16.5371l219.947 279.264c-1.6233 8.24466 -11.8604 6.0469 -25.6504 -0.46484
c3.18199 8.5799 12.4498 19.1189 6.04883 24.6113l-149.385 -116.686l-3.08789 393.883c4.73726 5.8628 8.46049 11.3387 4.43945 13.8438zM421.15 719.949c-5.79161 0.0152 -6.16819 -4.62843 -8.88867 -7.25586l-15.9258 -238.225
c-66.7098 -73.0394 -108.008 -156.405 -160.727 -234.262c26.4642 6.67767 54.2232 8.89953 76.6914 29.332c63.9564 58.1185 113.375 117.163 161.303 171.492c18.7699 18.7 15.0373 39.1175 15.7656 63.6387l5.07813 170.949
c-6.09676 9.20844 -33.86 20.0063 -44.9004 22.4082c-8.89097 3.76895 -16.541 11.2758 -23.4258 21.0859c-2.00856 0.58181 -3.63417 0.83244 -4.9707 0.83594z" />
    <glyph glyph-name="グリフ 64" unicode="&#x30ec;" 
d="M358.725 713.912c-9.83925 0.34145 -9.4695 -13.5388 -4.83594 -33.3555l6.46289 -36.6211l-9.50976 -224.387s-8.261 -93.972 -3.41602 -131.059c3.42765 -26.2318 24.7734 -75.3984 24.7734 -75.3984c10.4784 -28.9089 42.2812 -31.1648 68.9355 -39.8535
c23.0494 1.03786 28.6759 11.7559 39.8535 19.3887l68.9336 74.3203l92.6309 107.711l-10.7695 4.3086l31.2363 45.2383l-8.61719 4.30859l23.6953 34.4668l-145.408 -118.482l-88.3242 -71.0879l6.46289 348.982l10.7715 36.623
c0.31068 3.94886 4.95149 7.89881 -5.38477 11.8477l-92.6328 42.0078c-1.83968 0.65339 -3.45181 0.99224 -4.85742 1.04102z" />
    <glyph glyph-name="グリフ 65" unicode="&#x30ed;" horiz-adv-x="538" 
d="M58.0527 597.301c-3.76074 0.0488281 -1.69824 -4.96484 5.06641 -14.0684l3.77539 -23.166l-2.69922 -113.629l-6.47266 -81.3125l9.16992 -49.5469c9.44336 -14.4355 24.0176 -20.6611 43.6152 -18.8496l25.8457 18.3105l0.650391 4.0293
c66.5391 15.3057 201.892 -8.7998 234.146 -11.2812l42.0273 -16.9922c21.9873 -3.67773 30.4443 6.17383 43.0762 11.8516l10.7734 68.9375l12.9297 128.178l11.8516 30.1602c-5.22559 34.9521 -30.2744 54.5264 -60.3203 52.7695l-33.3828 -1.94727l-47.9453 -12.043
l-191.197 0.462891l1.63281 9.72461c-28.9385 9.63184 -61.9629 11.0928 -93.7031 15.1211l0.00195312 -0.00585938c-4.2207 2.20605 -7.13184 3.27539 -8.8418 3.29688v0zM367.947 514.834l5.37695 -126.021l-2.61914 -18.8486l-13.5332 5.91797l-60.3203 -7.53516
l-152.883 -1.8418l1 65.9375l5.93359 70l0.857422 7.07617z" />
    <glyph glyph-name="グリフ 66" unicode="&#x30de;" horiz-adv-x="602" 
d="M466.014 707.143v-0.00195312l-8.84961 -7.74219l-339.68 -8.84961c-8.69824 -1.76758 -16.001 4.21582 -28.7656 -16.6074l-39.8301 -69.7051c-7.85645 -11.2949 1.03711 -9.08398 8.84961 -7.74219l279.93 4.43359l122.82 5.52539l3.30859 -46.4648l-113.84 -97.5762
l-2.88672 8.50781l-113.414 17.6992c-18.7578 3.11035 -9.58301 -7.14258 -5.52734 -14.9453l67.4902 -140.519s24.7744 -72.7705 25.457 -77.4473c8.57617 -58.7715 59.5078 -25.8955 56.4238 -1.66016l2.2168 105.121l-7.90625 35.5938l162.799 70.0645l11.0664 56.4395
l17.6992 116.17c4.07812 9.56543 10.1973 16.8018 4.43359 37.6152c-28.9541 19.2305 -62.5166 30.5605 -101.795 32.0918v-0.000976562z" />
    <glyph glyph-name="グリフ 67" unicode="&#x30df;" horiz-adv-x="515" 
d="M153.363 689.088l-2.64258 -0.849609c-8.56738 -2.74512 -15.082 -9.24316 -16.8555 -17.5059l-38.5312 -79.6992l84.5605 -2.67188l156.504 -6.23047l75.877 -19.9609l2.13477 0.9375c15.3047 6.72266 26.8711 15.3984 37.9199 30.9316
c8.72852 4.6377 12.8418 13.1982 13.1699 21.0371c0.355469 8.50391 -1.78711 16.7764 -2.54688 23.7109l-0.191406 1.73438l-1.01953 1.42578c-12.042 16.8115 -30.2646 28.9082 -56.6738 25.4902h-50.2754l-179.113 10.082zM171.943 525.275l-1.88867 -0.966797
c-3.15039 -1.61426 -8.18848 -2.51855 -13.709 -5.73438c-5.35059 -3.11816 -10.3281 -9.18359 -12.3086 -18.4238l-22.5117 -49.5566l37.0137 -10.0098l75.959 -8.60742l89.6152 -22.6035l0.0898438 -0.015625c5.23242 -1.16602 11.0723 -2.92676 17.1172 -3.86719
c6.04395 -0.94043 12.6797 -1.14551 18.8027 2.16211l1.41797 0.767578l29.3125 42.6816l0.148438 1.76562c0.828125 9.89941 -0.896484 22.624 -13.3398 33.0488l-1.27734 1.07031l-131.699 27.7852zM92.6035 364.992l-2.04492 -0.921875
c-10.335 -4.66113 -19.6406 -11.9785 -24.6025 -23.3418c-0.00585938 -0.0117188 -0.0185547 -0.0205078 -0.0234375 -0.03125l-27.4668 -38.623l2.05078 -3.68359c0.321289 -0.577148 0.436523 -1.3252 0.753906 -3.50586
c0.316406 -2.18066 1.07031 -5.78516 3.58789 -8.98438c5.0332 -6.39844 14.1348 -10.334 35.2637 -15.0293l0.464844 -0.103516l82.4551 -6.28125l112.914 -13.9219l108.608 -55.4688l1.00391 -0.169922c7.51855 -1.2832 15.4629 -2.83105 23.4668 -2.83398
c7.69238 -0.00292969 15.6816 1.77734 22.4551 6.91797c7.02148 3.60352 10.8984 10.2773 12.9043 16.918c2.0625 6.82617 2.74707 14.0508 3.66797 20.6328l0.0820312 0.576172l-0.0234375 0.576172c-0.402344 11.9639 -6.70703 23.5762 -16.3789 35.3145l-1.04883 1.26953
l-108.838 45.6133l-90.4062 9.43359l-88.8047 24.1602z" />
    <glyph glyph-name="グリフ 68" unicode="&#x30e0;" horiz-adv-x="607" 
d="M239.5 673.652l-1.76562 -9.44141l-5.89648 -31.6387l-104.432 -196.771l-60.998 -86.043l-36.9004 -24.6035l2.37695 -5.18359c3.73438 -8.14844 4.91797 -18.4492 8.96875 -29.166s11.8936 -21.624 27.6523 -28.3965l1.46094 -0.628906l37.3086 2.33398l85.209 13.2793
l272.782 18.4766l26.0215 -58.2949l16.3066 -23.2891l0.582031 -0.523438c6.62109 -5.8877 13.6172 -10.0781 21.4004 -10.8672c7.5332 -0.762695 15.1475 2.41992 21.4141 8.49609c5.09668 3.65918 7.57422 9.22656 9 14.9121
c1.46875 5.85449 1.99902 12.2217 2.43555 18.543l0.0664062 0.982422l-33.4316 147.105l-7.55176 29.1191c-0.00585938 6.91992 -2.55469 12.748 -6.91699 15.668c-4.58398 3.06836 -9.10156 3.05957 -12.3057 3.41797l-0.324219 0.0371094l-102.927 1.30664
l28.4941 -31.8457l23.9766 -40.8516l-115.387 -6.07422l-151.779 -17.8203l110.545 189.271l49.2148 85.0098l0.220703 1.0332c0.349609 1.63379 1.79297 5.1543 0.421875 9.79492c-1.37012 4.64062 -5.42188 8.20801 -11.3398 10.9414l-0.412109 0.191406
l-0.443359 0.132812s-20.8721 6.3623 -42.084 12.9258c-10.6055 3.28223 -21.2979 6.6123 -29.4844 9.2207c-4.09277 1.30469 -7.5625 2.42676 -10.0527 3.26172c-1.24414 0.416992 -2.25195 0.767578 -2.92383 1.01172
c-0.670898 0.244141 -1.66309 0.862305 -0.273438 0.0292969z" />
    <glyph glyph-name="グリフ 69" unicode="&#x30e1;" horiz-adv-x="552" 
d="M444.551 757.557l-46.5645 -0.00195312l0.900391 -7.47656l3.25586 -27.1074l-9.92188 -212.871l-2.07422 -24.8184l-1.59375 -2.56055c-19.2012 12.1855 -39.2207 24.8477 -39.2207 24.8477l-0.472656 0.302734l-35.0781 14.7051l-0.287109 0.0878906
c-3.69336 1.17383 -7.43555 2.46387 -12.1211 1.81641c-2.34277 -0.323242 -5.11719 -1.42871 -7.10156 -3.60352c-1.50098 -1.64453 -2.39551 -3.65039 -2.86328 -5.71484l-35.0645 -47.8984l-3.45508 -13.8047l67.3301 -41.9805l16.4609 -11.7598l-11.6562 -18.6465
l-173.637 -173.623l-61.3652 -34.4512c-26.3779 -4.75977 -44.2578 -8.34082 -54.6621 -10.9316c-5.31445 -1.32324 -8.59766 -2.2207 -11.3691 -3.58008c-0.692383 -0.338867 -1.375 -0.693359 -2.25781 -1.43359c-0.882812 -0.739258 -2.47852 -2.08887 -2.69531 -5.11523
c-0.216797 -3.02539 1.93652 -5.56738 3.18164 -6.40625c1.24512 -0.837891 2.06543 -1.03418 2.82031 -1.23438c3.01758 -0.797852 5.72754 -0.78125 9.89844 -0.804688c4.1709 -0.0224609 9.39453 0.125 15.5254 0.392578c12.1475 0.53125 27.8369 1.55566 45.25 2.82227
c42.3486 -3.78516 71.9639 13.1455 101.988 24.8008l1.04883 0.40625l161.662 137.148l41.959 47.6934l62.8574 -39.8477l0.228516 -0.125c8.31348 -4.40527 17.8887 -11.4746 27.8301 -14.9844c4.9707 -1.75488 10.5088 -2.72949 15.9824 -0.671875
s9.63672 7.08496 12.0547 13.7363l0.0800781 0.222656l7.57422 26.5371l-1.83789 2.61328s-12.959 18.3564 -27.5352 38.6289c-13.2236 18.3906 -26.2314 36.0605 -34.0293 45.7539l1.65234 1.88281l22.4121 201.666l-1.10742 84.0566l2.13086 18.1074
c1.13086 5.10547 0.386719 10.5137 -2.78125 14.2324c-3.28711 3.85742 -7.80762 5.32324 -12.3125 6.05273l-0.220703 0.0371094z" />
    <glyph glyph-name="グリフ 70" unicode="&#x30e2;" horiz-adv-x="472" 
d="M418.805 629.74l-204.535 -6c-15.5859 3.4209 -120.059 2.17969 -120.059 2.17969l-45.2012 -75.1934l41.9941 -0.820312l77.9355 2.51953l-7.67773 -95.8086l-42.834 -0.0371094l-73.5566 -0.199219l-29.3418 -60.2266l22.2988 -13.6133l119.824 5.24414
l-2.48438 -73.6035l5.10938 -41.6309l77.0039 -86.666l61.584 -28.7441l51.543 32.1816l59.2578 54.7676l42.8047 66.7695l-130.408 -72.1562l-96.5293 64.666l6.83594 87.6992l27.248 1.19141l87.584 4.73828l48.6348 39.5469l1.63281 32.0918l-77.4609 0.662109
l-62.3594 -12.5859l-16.2461 -0.0390625l10.7402 72.5312l-1.17969 29.5264l50.2656 6.0625l65.0645 13.7656z" />
    <glyph glyph-name="グリフ 71" unicode="&#x30ae;" horiz-adv-x="458" 
d="M316.398 787.27c-3.46777 0.00976562 -6.74805 0.00195312 -9.36328 -0.00976562c-3.4873 -0.0146484 -5.79297 -0.0371094 -5.79297 -0.0371094l-11.5527 -32.8008l-26.252 -55.168c-11.8135 -19.2393 -4.88867 -17.0586 3.59766 -13.0918l86.4258 59.918
c4.75781 3.77051 9.67871 7.46289 4.83398 15.8945c-4.20703 8.92188 -9.71484 20.7148 -18.4375 24.4473c-0.958008 0.646484 -13.0557 0.820312 -23.459 0.847656v0zM198.031 737.686l-49.6719 -18.1514l-20.0664 -1.91211l17.7168 -95.2236l-97.9668 0.648438
l-32.4785 -34.3906l10.5117 -18.1514l27.707 -6.68555l29.6074 -14.3242l75.916 1.46289l13.748 -73.8887h-0.816406l-95.5332 -0.955078l-23.8789 -20.0664l39.1621 -36.3047l91.7188 -13.3672l2.36523 0.756836l38.2734 -205.643
c8.03711 -12.2939 12.1182 -7.97461 15.7188 -1.63086l20.5586 36.2031l13.3672 42.9883l-15.7305 151.387l76.3809 24.6523l1.91211 24.8359l-87.707 -1.51953l-14.7344 75.1699l115.811 53.248l10.5117 21.0215l-84.0645 -8.59766l-55.498 1.92969zM376.498 727.117
l-19.5918 -11.4219l-53.3652 -40.3574c-26.9736 -20.8984 -32.9053 -32.3984 -12.1582 -31.9824l65.5234 20.5605l46.6113 19.0371c2.68262 15.1465 2.59277 24.9834 0.716797 31.4004c-2.11035 0.0400391 -16.835 11.6865 -27.7363 12.7637v0h3e-06z" />
    <glyph glyph-name="グリフ 72" unicode="&#x30a1;" horiz-adv-x="430" 
d="M378.695 537.756v-0.01l-7.55664 -0.10742v-1.20508c-27.745 -1.63967 -56.8917 -8.97058 -84.4101 -14.2656l-158.92 -5.97461c-9.66927 1.10956 -20.8046 3.94496 -31.9648 5.46289c-11.3174 1.54027 -23.1315 1.94594 -33.334 -4.1543l-1.82227 -1.08375
l-10.8047 -20.2559l-23.8828 -61.1445l244.4 24.1836l-3.29687 -25.5996l-17.9688 -26.4551l-14.4473 -5.73437l-4.09375 7.04297l-100.002 3.64258l18.375 -29.6328c9.02589 -14.7679 19.3274 -37.0957 27.3008 -55.5605
c3.98974 -9.24087 7.42433 -17.5681 9.90234 -23.5527c1.23746 -2.99191 2.21029 -5.39242 2.94922 -7.11914c0 -0.0771 -0.00093 -0.0768 0.0762 -0.10742l-39.0215 -130.777l20.8281 19.6836c12.8192 12.0749 27.1464 32.3358 38.7812 50.5664
c5.81745 9.11452 10.8806 17.6507 14.5684 24.3496c1.84309 3.34949 3.33375 6.24248 4.43946 8.59179c0.55479 1.1743 1.03497 2.22463 1.41406 3.23633c0.27742 0.73969 0.5553 1.48495 0.74023 2.64844c0.11566 0.4238 5.62419 20.7192 11.1504 41.8223
c2.79315 10.6617 5.59262 21.4218 7.61524 29.752c1.01091 4.16466 1.82896 7.69873 2.39453 10.4141c0.11565 0.52396 0.13799 0.90297 0.22265 1.36914c25.4735 11.9031 51.1546 22.491 83.1621 47.8281l1.86719 1.5332l22.875 76.9629
c5.97695 6.29903 13.795 13.0799 20.4199 20.3027c3.49822 3.81332 6.65346 7.75413 8.92578 12.1738c2.2715 4.41895 3.72449 9.72485 2.45313 15.1856l-1.36914 5.6875l-5.80859 0.22265c-2.08506 0.0847 -4.12413 0.0936 -6.08204 0.0781c0 0 0.00093 0.00076 -0.0762 0z
" />
    <glyph glyph-name="グリフ 73" unicode="&#x30a3;" horiz-adv-x="382" 
d="M227.527 545.857v-20.1348v-103.75l-54.4336 -72.584l-149.305 -86.457c-10.8744 -7.3739 -5.16284 -14.7491 6.65234 -22.1231l87.2559 5.17774l73.6504 48.3535l5.07226 -47.1055l-4.56054 -113.982l64.5625 26.2168v70.4746l1.24804 61.3262l9.16602 39.1875
l-1.14453 24.6211l8.02148 9.78126l18.541 31.6797l14.3418 105.57c-20.3264 43.2248 -50.9682 37.4482 -79.0684 43.748h0.00033z" />
    <glyph glyph-name="グリフ 74" unicode="&#x30a5;" horiz-adv-x="325" 
d="M69.7637 524.75l51.4687 -49.9922l-7.61523 -26.5625l-32.2051 -2.4375l-17.0059 16.1484c-33.7882 7.49102 -45.3009 -1.10728 -41.8066 -20.543l6.89258 -67.9023l11.2559 -35.9531l31.3926 -26.6211l18.4961 18.0273l1.02344 42.5449l8.29297 13.6641l59.2188 8.12695
l57.1562 -2.7832l-0.73828 -26.623l-6.99804 -74.6289l-7.67578 -33.7851l-15.3047 -30.6562l-69.3926 -39.1875l-36.5098 -11.8887l4.32031 -19.3399l72.3555 9.10547l74.2226 33.0488l36.1191 64.8926l7.16406 115.412l7.73438 68.0234l-33.0469 22.0762l-30.3105 -14.793
l-38.2852 0.85742l0.96289 51.6348l-35.1992 12.9121z" />
    <glyph glyph-name="グリフ 75" unicode="&#x30a7;" horiz-adv-x="480" 
d="M131.043 478.971l-16.207 -11.2109l2.55859 -4.83204c-10.1354 -18.3731 -9.00418 -33.9282 22.1211 -41.9863l45.1641 -16.6602l8.86328 -66.9394l-3.80664 -44.7109l-1.31055 -18.375l-90.7168 -5.17774l-36.1172 4.89258
c-13.1105 -11.7012 -30.6553 -19.709 -27.1348 -45.2695l15.6973 -28.5625l86.8027 1.71485l45.3887 2.21289l70.1914 2.22656l48.8496 1.70117l57.0508 6.20117l64.9688 28.0957l5.62891 20.2559l-185.377 9.4375l4.89063 26.0488l5.80859 98.2266l77.4727 20.8281
l29.166 29.166l-52.6113 28.668l-106.699 -9.55469h-39.3691z" />
    <glyph glyph-name="グリフ 76" unicode="&#x30a9;" horiz-adv-x="444" 
d="M250.086 537.295l-46.7578 -0.0176l6.42579 -36.2969l10.0078 -46.3535l-8.12695 -0.67773l0.28515 0.0781l-59.6094 -3.02539l-47.6621 8.24805l-3.25 -3.58398c-6.3707 -6.94628 -11.9935 -14.4361 -14.8398 -23.3711
c-2.84477 -8.93423 -2.27662 -19.3489 2.9668 -29.1191l2.0918 -3.98828l27.9316 -3.6875l103.975 2.72461l-2.9043 -23.3262l-51.0176 -55.3964l-63.2969 -66.2012l-82.3047 -20.6035l1.02344 -17.3379l62.7402 -7.79493l80.709 30.084l56.3594 49.1504l-4.48437 -66.2168
l-11.5586 -21.4297l20.3633 -57.3379l49.0898 6.36524l3.53711 57.7891l-6.09571 109.318l-1.36914 83.9004l48.5195 3.86719l35.2149 -2.94922l24.4551 -4.43945l12.9726 53.9219l-38.166 12.0527l-73.8301 -4.09179l1.41406 54.0859z" />
    <glyph glyph-name="グリフ 77" unicode="&#x30e3;" horiz-adv-x="420" 
d="M108.395 533.459c-0.98298 -0.0004 -1.98375 -0.022 -3.00195 -0.0664l-0.004 -0.002l7.97656 -58.1797l7.90039 -63.8242l-0.17578 -0.2832l-62.7871 -14.5684l-1.26367 -1.24805c-5.0377 -4.84815 -11.1477 -9.86263 -15.6953 -16.2695
c-4.54685 -6.40691 -7.24316 -15.2829 -3.74805 -24.3496l1.70117 -4.31836l88.1133 5.01172l16.6582 -130.537l17.2324 -53.3047l39.5352 -25.8711l2.39258 86.7891l-5.17774 71.1094l-8.36719 58.3008l82.1387 19.8945l-6.25977 -40.377l-3.64258 -52.2656
l72.8086 65.4023l23.207 42.7109l26.4551 29.5254c6.57718 62.7707 -35.1213 39.7156 -63.1914 40.8906l-30.039 -17.2324l-106.652 -20.0762h-3.80859l-11.8281 64.502c-16.1471 17.8945 -30.0041 38.6494 -60.4766 38.6367z" />
    <glyph glyph-name="グリフ 78" unicode="&#x30e5;" horiz-adv-x="485" 
d="M272.939 429.832l-0.677734 -0.0761719l-112.164 -10.3555l-33.6797 -19.3984c-15.0605 -9.3623 -21.9238 -22.8223 -12.1738 -44.5898l150.221 -4.66602l-2.84375 -90.0391l-59.9551 -1.70117l-125.754 -13.9961l-27.0723 -4.15234l-27.4199 -50.4609l98.6934 -4.09375
s83.9941 7.78223 126.098 7.4043c36.1836 -0.323242 108.234 -8.30664 108.234 -8.30664l80.0312 -3.00977l5.2832 36.5098l-41.627 27.584l-67.918 17.6387l7.11914 135.367l-27.4199 25.3125z" />
    <glyph glyph-name="グリフ 79" unicode="&#x30e7;" horiz-adv-x="313" 
d="M259.525 515.492c-0.59531 -0.0186 -1.22611 -0.0651 -1.89453 -0.14063c-60.531 -11.4971 -120.421 -24.5585 -188.094 -18.6016v-0.002c-18.8275 -22.2845 -20.0536 -49.4431 -23.9277 -75.8691c-1.47065 -8.35427 5.40022 -7.05465 11.2695 -6.91602
c13.4917 -2.3531 40.5977 -3.69128 48.5352 -3.88086c31.8189 -0.76592 48.1867 7.8077 79.5606 11.2774c10.3803 -62.4402 0.82334 -120.844 -11.3008 -178.727l-125.029 3.35352c-11.4514 -6.57113 -15.502 -45.2476 -22.6445 -70.5078
c20.2507 -3.08811 38.4179 -2.13799 62.6094 -4.0586c5.22248 -4.82816 20.3143 -6.74516 38.2832 -7.8125l52.6035 8.74805c2.43462 -13.0537 7.35372 -6.98242 11.7031 -5.30469c31.0698 40.4157 58.7722 83.4435 67.7715 140.975
c6.87425 65.0204 5.07283 126.677 -10.3555 183.049l20.0195 11.5156c0.73711 7.22357 -0.17979 13.182 -9.10938 12.9024zM148.719 361.787c-4.3665 -0.009 -8.85727 -0.34831 -13.2676 -1.01563l0.002 -0.002l-27.4062 -1.77344l-11.4707 -16.666
c-16.8189 -14.7553 -12.3085 -22.7885 -2.77539 -39.1406c17.3041 -8.57034 33.8458 -12.8001 49.4238 -11.5508c13.3703 3.75296 25.203 9.00604 31.6914 19.4688l6.70117 32.1289c2.5938 12.4394 -13.9769 18.5904 -32.8984 18.5508z" />
    </font>
</defs>
</svg>
