<?xml version="1.0" encoding="UTF-8" standalone="no"?>
<svg
   xmlns:dc="http://purl.org/dc/elements/1.1/"
   xmlns:cc="http://creativecommons.org/ns#"
   xmlns:rdf="http://www.w3.org/1999/02/22-rdf-syntax-ns#"
   xmlns:svg="http://www.w3.org/2000/svg"
   xmlns="http://www.w3.org/2000/svg"
   xmlns:sodipodi="http://sodipodi.sourceforge.net/DTD/sodipodi-0.dtd"
   xmlns:inkscape="http://www.inkscape.org/namespaces/inkscape"
   width="1024"
   height="1024"
   viewBox="0 0 270.93333 270.93334"
   version="1.1"
   id="svg8"
   inkscape:version="1.0 (4035a4f, 2020-05-01)"
   sodipodi:docname="next.svg">
  <defs
     id="defs2" />
  <sodipodi:namedview
     inkscape:snap-global="false"
     id="base"
     pagecolor="#ffffff"
     bordercolor="#666666"
     borderopacity="1.0"
     inkscape:pageopacity="0.0"
     inkscape:pageshadow="2"
     inkscape:zoom="0.1666498"
     inkscape:cx="320.91043"
     inkscape:cy="2063.3638"
     inkscape:document-units="px"
     inkscape:current-layer="layer1"
     inkscape:document-rotation="0"
     showgrid="false"
     units="px"
     inkscape:showpageshadow="false"
     borderlayer="true"
     inkscape:window-width="1663"
     inkscape:window-height="1035"
     inkscape:window-x="4"
     inkscape:window-y="23"
     inkscape:window-maximized="0" />
  <metadata
     id="metadata5">
    <rdf:RDF>
      <cc:Work
         rdf:about="">
        <dc:format>image/svg+xml</dc:format>
        <dc:type
           rdf:resource="http://purl.org/dc/dcmitype/StillImage" />
        <dc:title />
      </cc:Work>
    </rdf:RDF>
  </metadata>
  <g
     inkscape:label="レイヤー 1"
     inkscape:groupmode="layer"
     id="layer1">
    <g
       transform="translate(216.40976,-168.5721)"
       id="g882">
      <rect
         style="fill:#cccccc;stroke-width:0.271994;stroke-linecap:round;stroke-dashoffset:4"
         id="rect869"
         width="270.93335"
         height="270.93335"
         x="-216.40976"
         y="168.5721" />
      <g
         id="g867"
         transform="matrix(13.200546,0,0,13.200546,2640.3182,-2251.4521)"
         style="fill:#f4d7d7">
        <g
           id="g1013"
           transform="matrix(1.9114992,0,0,1.8859916,244.49131,-58.963939)"
           style="fill:#f4d7d7">
          <path
             sodipodi:nodetypes="cccccccccc"
             d="m -240.03437,135.11541 c -0.13887,0.24379 -0.40925,0.41894 -0.69648,0.36711 -0.17339,-0.0668 -0.56317,-0.008 -0.30163,0.20569 0.43275,0.48435 1.26414,0.97209 1.22289,1.58259 -0.0157,0.3336 0.1396,0.75083 0.4472,0.81273 0.25303,0.0513 0.60134,0.0845 0.8147,-0.12829 0.80677,-0.83004 -0.5827,-1.89793 -0.4738,-2.33051 0.061,-0.45188 0.28817,-0.85529 0.4452,-1.27813 0.42271,-1.03614 0.84543,-2.07227 1.26814,-3.1084 -0.86738,1.32075 -1.85639,2.55795 -2.72622,3.87721 z"
             style="color:#000000;font-style:normal;font-variant:normal;font-weight:normal;font-stretch:normal;font-size:10.5833px;line-height:1.25;font-family:IPAPMincho;-inkscape-font-specification:'IPAPMincho, Normal';font-variant-ligatures:normal;font-variant-position:normal;font-variant-caps:normal;font-variant-numeric:normal;font-variant-alternates:normal;font-variant-east-asian:normal;font-feature-settings:normal;font-variation-settings:normal;text-indent:0;text-align:start;text-decoration:none;text-decoration-line:none;text-decoration-style:solid;text-decoration-color:#000000;letter-spacing:normal;word-spacing:normal;text-transform:none;writing-mode:lr-tb;direction:ltr;text-orientation:mixed;dominant-baseline:auto;baseline-shift:baseline;text-anchor:start;white-space:normal;shape-padding:0;shape-margin:0;inline-size:0;clip-rule:nonzero;display:inline;overflow:visible;visibility:visible;isolation:auto;mix-blend-mode:normal;color-interpolation:sRGB;color-interpolation-filters:linearRGB;solid-color:#000000;solid-opacity:1;vector-effect:none;fill:#f4d7d7;fill-opacity:1;fill-rule:nonzero;stroke:none;stroke-width:0.232833;stroke-linecap:butt;stroke-linejoin:round;stroke-miterlimit:4;stroke-dasharray:none;stroke-dashoffset:0;stroke-opacity:1;color-rendering:auto;image-rendering:auto;shape-rendering:auto;text-rendering:auto;enable-background:accumulate;stop-color:#000000"
             id="path958" />
          <path
             sodipodi:nodetypes="ccssscc"
             id="path956"
             d="m -240.72668,130.19971 c 0.40112,0.33686 1.01365,0.83898 1.27829,1.30184 0.061,0.11679 0.13187,0.21021 0.22374,0.268 0.0925,0.0582 0.20698,0.074 0.3134,0.0455 0.14948,-0.0401 0.2713,-0.11819 0.33645,-0.23781 0.0652,-0.11964 0.0665,-0.26496 0.0252,-0.41923 -0.62238,-0.86777 -1.59572,-1.10391 -2.17704,-0.9583 z"
             style="color:#000000;font-style:normal;font-variant:normal;font-weight:normal;font-stretch:normal;font-size:10.5833px;line-height:1.25;font-family:IPAPMincho;-inkscape-font-specification:'IPAPMincho, Normal';font-variant-ligatures:normal;font-variant-position:normal;font-variant-caps:normal;font-variant-numeric:normal;font-variant-alternates:normal;font-variant-east-asian:normal;font-feature-settings:normal;font-variation-settings:normal;text-indent:0;text-align:start;text-decoration:none;text-decoration-line:none;text-decoration-style:solid;text-decoration-color:#000000;letter-spacing:normal;word-spacing:normal;text-transform:none;writing-mode:lr-tb;direction:ltr;text-orientation:mixed;dominant-baseline:auto;baseline-shift:baseline;text-anchor:start;white-space:normal;shape-padding:0;shape-margin:0;inline-size:0;clip-rule:nonzero;display:inline;overflow:visible;visibility:visible;isolation:auto;mix-blend-mode:normal;color-interpolation:sRGB;color-interpolation-filters:linearRGB;solid-color:#000000;solid-opacity:1;vector-effect:none;fill:#f4d7d7;fill-opacity:1;fill-rule:nonzero;stroke:none;stroke-width:0.232833;stroke-linecap:butt;stroke-linejoin:round;stroke-miterlimit:4;stroke-dasharray:none;stroke-dashoffset:0;stroke-opacity:1;color-rendering:auto;image-rendering:auto;shape-rendering:auto;text-rendering:auto;enable-background:accumulate;stop-color:#000000" />
          <path
             sodipodi:nodetypes="ccssccccscsscccccccccccccccssccccc"
             d="m -236.5316,130.5474 c -0.37744,1.08699 -0.69242,1.98089 -1.37481,2.9876 0.32927,-0.15977 0.58403,-0.40593 0.85147,-0.59724 0.16911,-0.12097 0.35436,-0.18679 0.53157,-0.30043 0.21098,-0.13529 0.28564,-0.58401 0.38713,-0.85578 0.0237,-0.096 0.0715,-0.079 0.11781,-0.0867 1.13669,-0.006 2.274,0.0577 3.41359,0.057 0.0778,-0.002 0.0919,0.0547 0.0814,0.0949 -0.18415,0.55668 -0.34528,0.89684 -0.59983,1.4455 -0.0348,0.0751 -0.26497,0.34582 -0.68408,0.57362 0.18005,-0.0408 0.33522,-0.0682 0.64539,-0.114 0.0475,-0.007 0.29423,-0.009 0.34005,2.1e-4 0.37938,0.077 0.48569,-0.0891 0.56991,-0.17432 0.5252,-0.62128 0.45932,-0.98436 0.70006,-1.66282 0.26703,-0.0746 0.89311,-0.38547 0.58972,-0.65319 -0.24732,-0.17609 -0.68341,-0.58339 -1.00468,-0.43108 -0.12143,0.1683 -0.34557,0.12842 -0.46699,0.29673 h -3.44527 c 0.18599,-0.42641 0.18595,-0.49913 0.59793,-0.81995 0.19066,-0.17455 0.34675,-0.17303 0.43145,-0.24873 -0.39091,-0.66128 -1.15335,-0.70253 -1.39044,-0.43172 -0.18411,0.36884 -0.18472,0.70315 -0.29138,0.92037 z m 1.34234,1.43524 c 0.0274,2.79952 -1.19776,4.80307 -3.06882,6.3642 2.08275,-0.7317 2.77902,-1.24488 3.6762,-3.46843 0.41194,1.93067 1.43946,2.6284 2.93988,3.69947 0.40356,-0.007 0.66999,-0.38383 0.9874,-0.58922 0.17826,-0.13579 0.46194,-0.22329 0.0877,-0.28881 -1.13282,-0.50325 -2.10055,-1.35309 -2.82734,-2.3504 -0.32906,-0.50538 -0.59364,-0.63667 -0.74432,-1.21879 -0.0856,-0.33086 0.0102,-1.23449 0.0977,-1.60949 0.0357,-0.15316 0.29968,-0.13119 0.14597,-0.36437 -0.4209,-0.11086 -0.79351,-0.17416 -1.29441,-0.17416 z"
             style="color:#000000;font-style:normal;font-variant:normal;font-weight:normal;font-stretch:normal;font-size:10.5833px;line-height:1.25;font-family:IPAPMincho;-inkscape-font-specification:'IPAPMincho, Normal';font-variant-ligatures:normal;font-variant-position:normal;font-variant-caps:normal;font-variant-numeric:normal;font-variant-alternates:normal;font-variant-east-asian:normal;font-feature-settings:normal;font-variation-settings:normal;text-indent:0;text-align:start;text-decoration:none;text-decoration-line:none;text-decoration-style:solid;text-decoration-color:#000000;letter-spacing:normal;word-spacing:normal;text-transform:none;writing-mode:lr-tb;direction:ltr;text-orientation:mixed;dominant-baseline:auto;baseline-shift:baseline;text-anchor:start;white-space:normal;shape-padding:0;shape-margin:0;inline-size:0;clip-rule:nonzero;display:inline;overflow:visible;visibility:visible;isolation:auto;mix-blend-mode:normal;color-interpolation:sRGB;color-interpolation-filters:linearRGB;solid-color:#000000;solid-opacity:1;vector-effect:none;fill:#f4d7d7;fill-opacity:1;fill-rule:nonzero;stroke:none;stroke-width:0.232833;stroke-linecap:butt;stroke-linejoin:round;stroke-miterlimit:4;stroke-dasharray:none;stroke-dashoffset:0;stroke-opacity:1;color-rendering:auto;image-rendering:auto;shape-rendering:auto;text-rendering:auto;enable-background:accumulate;stop-color:#000000"
             id="path884" />
        </g>
        <path
           id="path896"
           style="color:#000000;font-style:normal;font-variant:normal;font-weight:normal;font-stretch:normal;font-size:10.5833px;line-height:1.25;font-family:IPAPMincho;-inkscape-font-specification:'IPAPMincho, Normal';font-variant-ligatures:normal;font-variant-position:normal;font-variant-caps:normal;font-variant-numeric:normal;font-variant-alternates:normal;font-variant-east-asian:normal;font-feature-settings:normal;font-variation-settings:normal;text-indent:0;text-align:start;text-decoration:none;text-decoration-line:none;text-decoration-style:solid;text-decoration-color:#000000;letter-spacing:normal;word-spacing:normal;text-transform:none;writing-mode:lr-tb;direction:ltr;text-orientation:mixed;dominant-baseline:auto;baseline-shift:baseline;text-anchor:start;white-space:normal;shape-padding:0;shape-margin:0;inline-size:0;clip-rule:nonzero;display:inline;overflow:visible;visibility:visible;isolation:auto;mix-blend-mode:normal;color-interpolation:sRGB;color-interpolation-filters:linearRGB;solid-color:#000000;solid-opacity:1;vector-effect:none;fill:#f4d7d7;fill-opacity:1;fill-rule:nonzero;stroke:none;stroke-width:0.451014;stroke-linecap:butt;stroke-linejoin:round;stroke-miterlimit:4;stroke-dasharray:none;stroke-dashoffset:0;stroke-opacity:1;color-rendering:auto;image-rendering:auto;shape-rendering:auto;text-rendering:auto;enable-background:accumulate;stop-color:#000000"
           d="m -201.02647,185.02099 c -0.0626,0.002 -0.12127,0.0294 -0.16287,0.0745 l -2.01764,0.88365 h -9.75897 c -0.17299,0 -0.28439,0.17514 -0.20477,0.32193 l 0.63382,0.65781 c 0.0399,0.0729 0.1187,0.11853 0.20479,0.11835 h 9.68055 c -0.94233,0.77057 -2.01234,1.4056 -3.43335,2.26419 l -0.22016,0.1371 c -1.32115,-0.51232 -1.64472,-1.04659 -3.8367,-0.95311 -0.47414,0.0202 -0.4427,0.32468 -0.31954,0.37965 1.34675,0.59696 2.43312,1.2211 3.26952,1.86223 -0.0721,0.17251 -0.13018,0.27354 -0.17298,0.45792 -0.0606,0.26327 -0.0894,0.5311 -0.0851,0.79167 h -7.55172 c -0.73861,0.16 -0.37087,0.90554 0.20581,1.1245 h 7.52818 c 0.0993,0.24012 0.23567,0.33582 0.4014,0.48722 v 6.2051 c 0,0.16798 -0.0417,0.24753 -0.11672,0.30727 -0.075,0.0598 -0.21841,0.10662 -0.45258,0.10662 -1.75297,-0.004 -3.80107,-0.1102 -5.3636,-0.22299 0.16962,0.063 2.55768,0.67578 3.84099,1.1548 0.54206,0.17516 0.24364,0.45287 0.46178,0.93416 0.005,0.10058 0.70646,0.25309 0.80996,0.2723 0.0913,0.0171 0.19437,0.0263 0.31333,0.0263 0.70599,0 1.18215,-0.28411 1.66394,-0.47754 0.61397,-0.2465 0.58468,-0.48813 0.58468,-1.42774 v -6.96837 c 0.11967,-0.18558 0.23977,-0.28185 0.4403,-0.39621 h 4.59861 c -0.14703,0.80021 -0.35453,1.54681 -0.9566,2.30142 -0.763,0.70637 -1.92032,1.34208 -3.03803,1.80158 1.0299,-0.121 1.92263,-0.50339 2.67308,-0.34052 0.52886,0.11476 0.97992,0.0458 1.08671,-0.19059 0.66185,-1.46482 1.50751,-2.16877 2.32373,-3.25298 l 0.67785,-0.1477 c 0.004,8e-5 0.007,8e-5 0.0118,0 0.10746,-0.0285 0.20482,-0.069 0.28675,-0.14088 0.0817,-0.0719 0.13928,-0.18985 0.13928,-0.29944 0,-0.13484 -0.058,-0.2316 -0.13217,-0.34348 -0.0743,-0.11192 -0.17734,-0.23508 -0.30923,-0.37382 -0.26363,-0.27746 -0.64795,-0.62238 -1.15706,-1.04315 -0.0964,-0.0791 -0.24131,-0.0691 -0.32458,0.0225 l -1.76276,0.77689 -3.69396,0.10574 c 0.0118,-0.0437 0.0233,-0.0879 0.0339,-0.13218 0.005,-0.0241 0.009,-0.0483 0.0158,-0.0722 0.0403,-0.0998 0.0698,-0.20596 0.0696,-0.3288 0,-0.0266 -0.007,-0.0529 -0.009,-0.0793 0.0567,-0.69157 -0.11255,-1.24669 -0.46077,-1.64788 1.70984,-0.82441 3.14564,-1.59736 4.21362,-2.30649 l 0.75157,-0.15452 h 0.004 c 0.11196,-0.0239 0.20989,-0.0568 0.29798,-0.12234 0.0881,-0.0654 0.33258,-0.2416 0.34457,-0.29943 -0.20757,-0.25225 -0.45445,-0.52819 -0.64562,-0.74763 -0.27845,-0.28488 -0.68267,-0.63291 -1.21956,-1.0539 -0.0443,-0.0359 -0.10087,-0.0542 -0.15871,-0.0519 z"
           sodipodi:nodetypes="scccccccccsccccccccssccccsssscccccsscccssssccccccscccccscccss" />
        <path
           id="path902"
           style="color:#000000;font-style:normal;font-variant:normal;font-weight:normal;font-stretch:normal;font-size:10.5833px;line-height:1.25;font-family:IPAPMincho;-inkscape-font-specification:'IPAPMincho, Normal';font-variant-ligatures:normal;font-variant-position:normal;font-variant-caps:normal;font-variant-numeric:normal;font-variant-alternates:normal;font-variant-east-asian:normal;font-feature-settings:normal;font-variation-settings:normal;text-indent:0;text-align:start;text-decoration:none;text-decoration-line:none;text-decoration-style:solid;text-decoration-color:#000000;letter-spacing:normal;word-spacing:normal;text-transform:none;writing-mode:lr-tb;direction:ltr;text-orientation:mixed;dominant-baseline:auto;baseline-shift:baseline;text-anchor:start;white-space:normal;shape-padding:0;shape-margin:0;inline-size:0;clip-rule:nonzero;display:inline;overflow:visible;visibility:visible;isolation:auto;mix-blend-mode:normal;color-interpolation:sRGB;color-interpolation-filters:linearRGB;solid-color:#000000;solid-opacity:1;vector-effect:none;fill:#f4d7d7;fill-opacity:1;fill-rule:nonzero;stroke:none;stroke-width:0.457545;stroke-linecap:butt;stroke-linejoin:round;stroke-miterlimit:4;stroke-dasharray:none;stroke-dashoffset:0;stroke-opacity:1;color-rendering:auto;image-rendering:auto;shape-rendering:auto;text-rendering:auto;enable-background:accumulate;stop-color:#000000"
           d="m -207.04081,184.65246 v 3.81874 h -3.84141 c 0.16572,-0.37747 1.60259,-1.6804 1.65782,-1.69446 0.10298,-0.0356 0.19493,-0.0771 0.27056,-0.14296 0.0757,-0.0661 0.13089,-0.1646 0.13089,-0.26194 -0.79764,-0.78372 -2.8324,-1.12305 -2.91937,-0.49269 -0.52091,1.83296 -1.23264,2.95196 -2.14603,4.28933 1.0846,0.0615 1.49228,-0.26248 2.2825,-0.81172 l 0.30236,-0.24444 c 0.092,0.14832 0.48457,0.34389 0.60406,0.34715 l 3.65877,-0.10271 v 2.73837 c 0.0529,0.56219 -0.0664,0.479 -0.58048,0.479 h -8.2796 c -0.1813,-4.8e-4 -0.30388,0.15215 -0.23253,0.28963 l 0.24484,0.47042 c 0.04,0.0766 0.13154,0.1259 0.23255,0.12551 h 18.87055 c 0.90543,-0.12302 0.64999,-0.32142 0.45673,-0.69361 -0.49541,-0.5219 -1.07316,-1.01952 -1.7329,-1.48878 -0.10968,-0.0772 -0.27545,-0.0631 -0.36335,0.0315 l -1.1873,1.26553 h -4.79086 c -0.55225,0 -0.78232,-0.0219 -0.78232,-0.82156 v -2.3958 h 7.37116 c 0.0915,-8.8e-4 0.17545,-0.0423 0.21911,-0.10883 l 0.25827,-0.37635 c 0.0474,-0.0723 0.0387,-0.16096 -0.0223,-0.226 -0.49469,-0.54002 -1.39166,-1.03645 -2.00815,-1.4823 -0.11185,-0.0812 -0.28441,-0.0649 -0.37119,0.0349 l -1.11127,1.10176 -4.33556,0.17118 v -2.26616 c -0.0152,-0.20046 0.0995,-0.22127 0.17372,-0.25808 0.19255,-0.0588 0.3682,-0.11727 0.49372,-0.18108 0.20488,-0.10424 0.38459,-0.23272 0.38459,-0.43631 0,-0.15233 -0.12569,-0.27919 -0.26608,-0.35515 -0.1404,-0.0759 -0.31277,-0.12665 -0.52881,-0.17054 -0.61587,-0.13931 -2.13947,-0.42818 -2.11269,-0.15119 z m 6.73366,9.82707 c -0.009,2.2e-4 -0.0195,8.9e-4 -0.0279,0.002 -0.064,0.005 -0.12289,0.0345 -0.16442,0.0782 l -1.45036,0.89122 h -9.26224 c -0.57853,-0.26432 -1.06835,-0.47223 -1.45338,-0.60999 -0.16659,-0.0598 -0.34836,0.0496 -0.34659,0.20894 v 7.30592 c -10e-4,0.12302 0.11056,0.22352 0.24932,0.22477 h 1.33153 c 0.14063,8.9e-4 0.25484,-0.10022 0.25378,-0.22477 v -0.70869 c 0,0 0.35483,-0.47641 0.77997,-0.44395 h 8.96403 c 0,0 0.18389,-0.0173 0.18151,0.10424 v 1.04842 c -0.001,0.12455 0.11315,0.22573 0.25377,0.22477 h 1.33041 c 0.1389,-8.9e-4 0.25038,-0.10175 0.24932,-0.22477 v -5.6661 l 0.46062,-0.25447 c 0.2038,-0.0945 0.65418,-0.27122 0.65418,-0.47532 0,-0.25652 -0.47048,-0.41369 -0.7302,-0.63672 -0.25975,-0.22305 -0.62972,-0.48626 -1.12359,-0.80011 -0.0435,-0.0283 -0.0958,-0.0437 -0.14993,-0.0435 z m -10.21864,2.05431 1.17198,-0.13227 7.63267,0.15887 c 0.51501,-0.002 0.46737,0.2218 0.4693,0.33882 v 2.79296 c 0.007,0.33798 -0.0711,0.4287 -0.45512,0.45438 l -9.09933,0.10588 c -0.23527,0.011 -0.37544,-0.0115 -0.37116,-0.24717 v -3.01795 c -0.0335,-0.33959 0.65159,-0.45362 0.65159,-0.45362 z"
           sodipodi:nodetypes="ccccsccccccccccccccccccsccccccccccccsssccccccccccccccccccccccccsscccccccccccccc" />
        <g
           id="g1042"
           transform="matrix(2.2339212,0,0,2.0441466,296.73944,-79.697282)"
           style="fill:#f4d7d7">
          <path
             sodipodi:nodetypes="sccccccccscccccccccssccssccccccccc"
             d="m -223.92173,132.02398 c -0.005,-1e-4 -0.009,1e-4 -0.0139,5e-4 -0.032,0.002 -0.0616,0.0155 -0.0816,0.0369 l -0.47908,0.34866 h -1.88047 c -0.16431,-0.0743 -0.37938,-0.15637 -0.66817,-0.25239 -0.077,-0.0265 -0.16103,0.0221 -0.1602,0.0928 v 3.26707 c 0.0837,0.28198 0.7985,0.14962 0.82837,0 v -0.0791 c 0,-0.18555 0.15796,-0.24753 0.25175,-0.2445 h 1.65172 c 0.0109,-0.006 0.0778,0.0677 0.14705,0.14288 0.0399,0.0515 0.0531,0.0982 0.11731,0.0978 h 0.60358 c 0.0642,4.6e-4 0.11666,-0.0431 0.1173,-0.0978 v -2.38799 l 0.19328,-0.11672 0.002,-0.002 c 0.0596,-0.0379 0.10904,-0.0993 0.10904,-0.16759 0,-0.0553 -0.0259,-0.0958 -0.0584,-0.13767 -0.0325,-0.0418 -0.0753,-0.0837 -0.13075,-0.13169 -0.11085,-0.0958 -0.26976,-0.21078 -0.48059,-0.34866 -0.0196,-0.0129 -0.0435,-0.0199 -0.0682,-0.0205 z m -2.39205,0.8857 h 1.8831 c 0,0 0.1047,-0.002 0.10432,0.0748 v 1.45322 c 0.005,0.24335 -0.0211,0.27762 -0.1752,0.28181 h -1.79595 c -0.0865,-0.001 -0.0794,-0.0865 -0.0794,-0.0865 l 3e-5,-1.66503 c -3.9e-4,-0.0435 0.0207,-0.0648 0.0631,-0.0583 z"
             style="color:#000000;font-style:normal;font-variant:normal;font-weight:normal;font-stretch:normal;font-size:10.5833px;line-height:1.25;font-family:IPAPMincho;-inkscape-font-specification:'IPAPMincho, Normal';font-variant-ligatures:normal;font-variant-position:normal;font-variant-caps:normal;font-variant-numeric:normal;font-variant-alternates:normal;font-variant-east-asian:normal;font-feature-settings:normal;font-variation-settings:normal;text-indent:0;text-align:start;text-decoration:none;text-decoration-line:none;text-decoration-style:solid;text-decoration-color:#000000;letter-spacing:normal;word-spacing:normal;text-transform:none;writing-mode:lr-tb;direction:ltr;text-orientation:mixed;dominant-baseline:auto;baseline-shift:baseline;text-anchor:start;white-space:normal;shape-padding:0;shape-margin:0;inline-size:0;clip-rule:nonzero;display:inline;overflow:visible;visibility:visible;isolation:auto;mix-blend-mode:normal;color-interpolation:sRGB;color-interpolation-filters:linearRGB;solid-color:#000000;solid-opacity:1;vector-effect:none;fill:#f4d7d7;fill-opacity:1;fill-rule:nonzero;stroke:none;stroke-width:0.214774;stroke-linecap:butt;stroke-linejoin:round;stroke-miterlimit:4;stroke-dasharray:none;stroke-dashoffset:0;stroke-opacity:1;color-rendering:auto;image-rendering:auto;shape-rendering:auto;text-rendering:auto;enable-background:accumulate;stop-color:#000000"
             id="path1019" />
          <path
             transform="scale(0.26458333)"
             d="m -837.70508,491.2207 c -0.0151,-1.1e-4 -0.0302,6.7e-4 -0.0449,0.002 -0.11943,0.008 -0.23111,0.0562 -0.30859,0.13672 -0.64993,0.86558 -1.07582,1.34545 -2.07422,1.54882 h -23.41602 c -0.81048,-0.33751 -1.72665,-0.69298 -2.77539,-1.06054 -0.29102,-0.10394 -0.60857,0.0866 -0.60547,0.36328 v 27.1582 c -0.39462,3.02445 1.95518,2.81496 3.02539,1.47852 0.6118,-0.764 1.18481,-1.59766 1.62305,-1.59766 h 22.9082 v 1.28906 c -0.0401,0.57033 0.008,0.86417 0.31055,1.13282 0.57642,0.51382 1.92904,0.45607 2.625,-0.0293 0.40263,-0.28233 0.38672,-0.65558 0.38672,-1.2832 v -25.20899 l 0.82031,-0.51953 -0.0293,0.01 c 0.31295,-0.17385 0.58399,-0.43533 0.58399,-0.77148 0,-0.24 -0.12043,-0.38148 -0.25195,-0.54102 -0.13153,-0.15949 -0.30426,-0.33043 -0.53125,-0.52734 -0.45366,-0.3939 -1.11349,-0.8906 -1.98633,-1.49805 -0.0741,-0.0499 -0.16446,-0.077 -0.25781,-0.0781 z m -24.90886,3.53772 22.07069,0.19566 c 0.95788,-0.006 1.19068,0.0145 1.1702,0.9415 v 20.69304 c 0.0113,0.41598 -0.48437,0.42188 -0.48437,0.42188 l -4.16346,0.19561 h -19.13342 c -0.47353,0.003 -0.45312,-0.49219 -0.45312,-0.49219 v -20.8076 c -0.0278,-0.89256 -0.0382,-1.1479 0.99348,-1.1479 z"
             style="color:#000000;font-style:normal;font-variant:normal;font-weight:normal;font-stretch:normal;font-size:10.5833px;line-height:1.25;font-family:IPAPMincho;-inkscape-font-specification:'IPAPMincho, Normal';font-variant-ligatures:normal;font-variant-position:normal;font-variant-caps:normal;font-variant-numeric:normal;font-variant-alternates:normal;font-variant-east-asian:normal;font-feature-settings:normal;font-variation-settings:normal;text-indent:0;text-align:start;text-decoration:none;text-decoration-line:none;text-decoration-style:solid;text-decoration-color:#000000;letter-spacing:normal;word-spacing:normal;text-transform:none;writing-mode:lr-tb;direction:ltr;text-orientation:mixed;dominant-baseline:auto;baseline-shift:baseline;text-anchor:start;white-space:normal;shape-padding:0;shape-margin:0;inline-size:0;clip-rule:nonzero;display:inline;overflow:visible;visibility:visible;isolation:auto;mix-blend-mode:normal;color-interpolation:sRGB;color-interpolation-filters:linearRGB;solid-color:#000000;solid-opacity:1;vector-effect:none;fill:#f4d7d7;fill-opacity:1;fill-rule:nonzero;stroke:none;stroke-width:0.826231;stroke-linecap:butt;stroke-linejoin:round;stroke-miterlimit:4;stroke-dasharray:none;stroke-dashoffset:0;stroke-opacity:1;color-rendering:auto;image-rendering:auto;shape-rendering:auto;text-rendering:auto;enable-background:accumulate;stop-color:#000000"
             id="path890"
             sodipodi:nodetypes="ccccccccssccccscccsscccccccccccccc" />
        </g>
      </g>
    </g>
  </g>
</svg>
