<?xml version="1.0" standalone="no"?>
<!DOCTYPE svg PUBLIC "-//W3C//DTD SVG 1.1//EN" "http://www.w3.org/Graphics/SVG/1.1/DTD/svg11.dtd" >
<svg xmlns="http://www.w3.org/2000/svg" xmlns:xlink="http://www.w3.org/1999/xlink" version="1.1" viewBox="-10 0 328 1024">
  <g transform="matrix(1 0 0 -1 0 819)">
   <path fill="currentColor"
d="M186.244 159.343c2.49512 -2.35156 5.72266 -4.37109 1.93359 -7.83105l-51.9053 -42.0645l-35.3506 40.7422c-1.2207 2.50879 -0.134766 4.06836 3.25488 4.67871l17.085 4.47461h-53.4922l54.0244 -61.6279l-96.126 -77.8984
c-6.30566 -4.72754 -12.6113 -6.88574 -18.916 -10.1699h124.272l-56.9492 7.52441c-4.7832 2.30566 -3.06738 4.61133 -1.2207 6.91602l67.4873 52.4707l48.8516 -55.7256c5.00391 -4.40527 -0.727539 17.126 -4.47266 13.8145l65.8984 -25l-24.001 6.10156
c-9.05078 2.52148 -15.0928 7.45215 -20.3398 13.0176l-51.3252 59.1523l73.292 56.9834c5.52539 3.94922 11.7656 7.54102 20.3389 9.9668l15.6611 4.47461h-78.001z" />
  </g>

</svg>
